<?xml version="1.0" encoding="UTF-8"?>
<svg id="Calque_1" data-name="Calque 1" xmlns="http://www.w3.org/2000/svg" viewBox="0 0 569.62 754.37">
  <defs>
    <style>
      .cls-1 {
        fill: #071453;
        stroke-width: 0px;
      }
    </style>
  </defs>
  <path class="cls-1" d="M0,464c0-105.02,54.89-199.68,142.41-251.4,43.76-26.25,90.69-38.98,142.4-38.98,102.63,0,194.92,55.69,246.63,144.79,25.45,44.55,38.18,93.09,38.18,145.59,0,105.01-55.68,199.68-142.4,251.39-43.76,26.25-90.69,38.98-142.41,38.98-102.62,0-195.7-55.69-246.62-144.8C12.74,565.03,0,516.5,0,464ZM284.81,301.7c-89.89,0-159.1,74.78-159.1,162.29s69.21,162.29,159.1,162.29,159.12-74.78,159.12-162.29-69.21-162.29-159.12-162.29Z"/>
  <rect class="cls-1" x="36.81" width="495.23" height="111.63" rx="16.62" ry="16.62"/>
</svg>
