<svg xmlns="http://www.w3.org/2000/svg" xmlns:xlink="http://www.w3.org/1999/xlink" viewBox="130 580 330 96" xml:space="preserve">
<style>.st0{fill:#6BD6A6;}.st1{fill:#071453;}.st2{fill:none;stroke:#071453;stroke-width:2;stroke-linecap:round;stroke-miterlimit:10;}</style>
<g>
  <path class="st0" d="M163.1,622.1c-0.3,0-0.6,0-1,0.1c-0.4,0.1-0.8,0.1-1.2,0.2c-0.4,0.1-0.7,0.2-1.2,0.4c-0.4,0.2-0.8,0.4-1.2,0.5c-0.4,0.1-0.7,0.4-1.2,0.7v43.2h-15.3v-59.2h15.3c0,0.5-0.1,1-0.2,1.4c-0.1,0.4-0.3,0.9-0.4,1.4c-0.2,0.7-0.4,1.2-0.5,1.5c-0.1,0.3-0.4,0.8-0.7,1.6c-0.1,0.2-0.3,0.5-0.4,0.7c-0.1,0.2-0.3,0.5-0.4,0.6l0.8,0.7c0.6-1,1.4-1.9,2.4-2.9c1-1,1.9-1.8,2.8-2.4c1-0.7,2.1-1.3,3-1.8c1-0.5,2-0.9,3.1-1.1c0.5-0.1,1-0.2,1.5-0.2c0.5-0.1,1-0.1,1.5-0.1c0.7,0,1.4,0.1,2.1,0.2c0.7,0.2,1.4,0.4,2.1,0.7c0.7,0.4,1.3,0.8,1.9,1.3c0.6,0.5,1.1,1,1.6,1.5c0.2,0.3,0.5,0.6,0.7,1c0.2,0.4,0.4,0.7,0.6,1.1c0.8-0.7,1.7-1.3,2.7-2c1-0.7,1.9-1.2,2.8-1.6c0.9-0.5,1.8-0.9,2.9-1.2c1-0.4,2-0.6,2.9-0.7c0.5,0,1-0.1,1.5-0.1c0.5,0,0.9-0.1,1.4-0.1c1.7,0,3.2,0.2,4.5,0.7c1.2,0.5,2.4,1.1,3.4,1.9c1,0.8,1.9,1.9,2.6,3.1c0.7,1.3,1.2,2.6,1.6,4.1c0.4,1.6,0.5,3.4,0.5,5.2v44.9h-15.3v-41.5c0-0.5,0-1-0.1-1.3c-0.1-0.3-0.2-0.7-0.5-1.1c-0.2-0.4-0.5-0.6-0.8-0.8c-0.3-0.2-0.6-0.3-0.9-0.4c-0.3-0.1-0.7-0.1-1.2-0.1c-2.1,0-4,0.9-5.8,2.7v42.5h-13.9v-41.5c0-1-0.2-1.8-0.6-2.3c-0.4-0.4-0.6-0.6-0.9-0.8c-0.2-0.2-0.5-0.3-1-0.5C164.1,622.2,163.6,622.1,163.1,622.1z"/>
  <path class="st0" d="M211.4,595.2c0-1.9,0.5-3.7,1.6-5.2c0.5-0.7,1.1-1.4,1.8-1.9s1.5-0.9,2.3-1.2c0.9-0.3,1.8-0.4,2.7-0.4c0.9,0,1.8,0.1,2.7,0.4c0.9,0.2,1.7,0.6,2.4,1.2c1.5,1.1,2.4,2.5,3,4.3c0.3,0.9,0.4,1.9,0.4,2.9c0,2.5-0.8,4.6-2.4,6.3c-1.6,1.7-3.6,2.6-6.1,2.6c-2,0-3.6-0.6-5-1.7c-0.7-0.5-1.3-1.2-1.8-1.9c-0.5-0.7-0.9-1.6-1.2-2.5C211.6,597.1,211.4,596.2,211.4,595.2z M212.3,667.3v-59.2h15.3v59.2H212.3z"/>
  <path class="st0" d="M249,608.2l5.6,14.1c0.1,0.3,0.2,0.6,0.3,0.8c0.1,0.3,0.2,0.6,0.3,0.9c0,0.5,0.1,0.8,0.1,0.8c0,0,0,0,0,0.1c0,0,0.1,0.4,0.2,1c0,0.2,0,0.3,0,0.5v0.5h1.1c0-0.4,0-0.7,0-1c0-0.2,0.1-0.5,0.2-1c0.1-0.6,0.2-1.2,0.4-1.8c0-0.1,0.1-0.3,0.1-0.4c0-0.1,0.1-0.3,0.1-0.4l5.5-14.1h16l-14.1,29.6l14.1,29.6h-16l-5.9-14.2c-0.1-0.3-0.2-0.5-0.2-0.6c-0.1-0.1-0.2-0.5-0.4-1.2c-0.1-0.3-0.2-0.6-0.2-0.9c0-0.3-0.1-0.6-0.1-1c0-0.1-0.1-0.3-0.1-0.5v-0.4H255c0,0.4,0,0.7,0,1c0,0.2-0.1,0.5-0.1,0.9c-0.1,0.4-0.2,0.7-0.2,1c0,0.3-0.1,0.6-0.2,0.9c0,0.1-0.1,0.3-0.1,0.4c0,0.1-0.1,0.3-0.1,0.4l-5.2,14.1h-16.3l14.1-29.6l-14.1-29.6H249z"/>
  <path class="st0" d="M279.3,652c0-2.4,0.3-4.5,1-6.5c0.6-2,1.6-3.8,3-5.3c1.4-1.6,3-2.9,5.1-4c2-1.1,4.4-2.1,7.2-2.9c1.4-0.4,2.9-0.8,4.5-1.1c1.6-0.3,3.3-0.6,5-0.8v-4.5c0-0.5-0.1-1-0.2-1.5c-0.2-0.6-0.4-1-0.6-1.3c-0.3-0.4-0.6-0.7-0.9-1c-0.3-0.3-0.7-0.5-1.3-0.7c-0.5-0.1-1-0.2-1.5-0.2c-0.4,0-0.9,0.1-1.5,0.2c-0.6,0.1-1,0.3-1.3,0.6c-0.7,0.5-1.2,1.3-1.5,2.2c-0.2,0.5-0.3,1-0.3,1.5v1.6h-15v-4c0-2,0.3-3.9,0.9-5.7c0.6-1.8,1.4-3.4,2.5-4.8c2.2-2.7,5.4-4.5,9.6-5.6c1-0.2,2.1-0.4,3.2-0.5c1.2-0.1,2.3-0.2,3.6-0.2c6.2,0,11,1.5,14.5,4.4c3.4,2.9,5.1,7,5.1,12.3v43.1H305c0-0.4,0-0.9,0.1-1.5c0.1-0.6,0.2-1.1,0.3-1.5c0.2-0.5,0.4-1,0.6-1.5c0.2-0.5,0.4-1,0.7-1.5c0.2-0.4,0.5-0.9,1-1.4l-0.8-0.7c-0.7,1.3-1.5,2.3-2.2,3.2s-1.6,1.6-2.4,2.3c-0.8,0.7-1.7,1.3-2.7,1.7c-1,0.5-2.1,0.8-3.3,1.1c-0.5,0.1-1.1,0.2-1.7,0.3c-0.6,0.1-1.1,0.1-1.7,0.1c-1.5,0-3-0.2-4.4-0.6c-1.4-0.4-2.8-1.2-4-2.2c-1.1-0.9-2.1-2-2.9-3.4c-0.8-1.4-1.3-2.9-1.7-4.5c-0.2-0.8-0.4-1.7-0.5-2.6C279.4,653.8,279.3,652.9,279.3,652z M295,649.6c0,0.7,0.1,1.3,0.2,1.9c0.2,0.6,0.4,1,0.6,1.3c0.6,0.9,1.4,1.5,2.4,1.7c0.5,0.2,1.1,0.3,1.6,0.3c1.5,0,3.3-0.6,5.3-1.7v-12.6c-1.4,0.5-2.6,0.9-3.7,1.4c-1.1,0.5-2,1-2.9,1.6c-0.7,0.5-1.4,1.1-1.9,1.8c-0.6,0.6-1,1.3-1.2,2.1C295.1,648.2,295,648.9,295,649.6z"/>
  <path class="st0" d="M327.1,608.2h15.3c0,0.5,0,0.9-0.1,1.3c-0.1,0.4-0.2,0.9-0.5,1.5c-0.2,0.7-0.4,1.1-0.4,1.2c0,0.1-0.1,0.3-0.2,0.4c-0.1,0.2-0.3,0.6-0.6,1.4c-0.2,0.5-0.5,1-0.8,1.4l0.8,0.7c0.7-1.1,1.4-2,2.1-2.9c0.7-0.8,1.6-1.6,2.7-2.4c1.8-1.3,4-2.1,6.5-2.4c1.2-0.2,2.5-0.3,4.1-0.3h2.7l-0.7,14.6h-4.3c-3.6,0-6.3,0.6-8.2,1.7c-2,1.2-3,2.9-3,5v37.8h-15.3V608.2z"/>
  <path class="st0" d="M381.7,593.9v3.9c0,5-2,8.6-6.1,10.6v1.1c2-0.9,4.1-1.4,6.5-1.4h10.8v14.3h-11.2v28.2c0,1.4,0.7,2,2,2h9.2l0.7,14.6H380c-1.8,0-3.4-0.2-4.9-0.5c-1.5-0.4-2.7-0.9-3.8-1.6c-1.1-0.6-2-1.5-2.7-2.7c-0.7-1.1-1.3-2.4-1.6-3.7c-0.4-1.5-0.5-3.1-0.5-4.9v-31.4H361v-14.3h5.4v-14.3H381.7z"/>
  <path class="st1" d="M424.9,668c-3.4,0-6.7-0.5-9.7-1.6s-5.7-2.5-8-4.3c-2.4-1.8-4.6-3.9-6.4-6.4c-1.8-2.4-3.3-5.3-4.3-8.6c-1-3-1.5-6.2-1.5-9.6c0-3.3,0.5-6.4,1.5-9.5c1-3,2.4-5.8,4.2-8.3c1.9-2.6,4.1-4.8,6.6-6.6c2.5-1.8,5.2-3.2,8.1-4.1c1.5-0.5,3-0.9,4.6-1.2c1.6-0.3,3.2-0.4,4.9-0.4c3.2,0,6.4,0.5,9.4,1.6c3.1,1,5.8,2.4,8.3,4.2c2.4,1.8,4.5,4,6.4,6.5c1.9,2.5,3.3,5.3,4.3,8.3c0.5,1.5,0.8,3,1.1,4.6c0.3,1.6,0.4,3.2,0.4,4.8c0,2.7-0.4,5.6-1.3,8.8s-2.3,6.2-4.5,9.2c-1.8,2.5-4,4.7-6.5,6.6c-2.5,1.9-5.3,3.3-8.2,4.3c-1.5,0.5-3,0.9-4.6,1.2C428.1,667.9,426.5,668,424.9,668z M425,653.4c1.5,0,3-0.2,4.5-0.7c1.5-0.5,2.9-1.2,4-2.2c1.5-1.2,2.7-2.5,3.5-3.8c0.8-1.4,1.4-2.7,1.7-3.8c0.2-0.8,0.4-1.6,0.5-2.4s0.2-1.7,0.2-2.6c0-1.8-0.2-3.4-0.7-5c-0.5-1.6-1.2-3-2-4.3c-0.8-1.1-1.7-2.1-2.9-3.2c-1.2-1-2.6-1.8-4.3-2.4c-1.5-0.5-3-0.7-4.6-0.7c-3.3,0-6.1,1-8.6,2.9c-1.2,0.9-2.2,2-3.2,3.4c-1,1.3-1.7,2.8-2.1,4.3c-0.2,0.8-0.4,1.6-0.5,2.4c-0.1,0.9-0.2,1.7-0.2,2.6c0,1.4,0.2,2.9,0.6,4.5c0.4,1.6,1.2,3.2,2.2,4.8c0.9,1.3,1.9,2.4,3.1,3.3c1.2,1,2.6,1.7,4.1,2.2C421.8,653.1,423.4,653.4,425,653.4z"/>
</g>
<path class="st2" d="M420.8,636.1c0-0.1,0-0.3-0.1-0.4c-0.2-2.2,1.1-4,2.8-4.2c0.9-0.1,1.8,0.3,2.5,1"/>
<path class="st2" d="M429.3,631.5c0.2-1.2,0.9-2.2,1.9-2.4c0.7-0.1,1.3,0.1,1.9,0.6"/>
<path class="st2" d="M434.3,634.5c0.2,0.6,0.3,1.2,0.4,1.8c0.5,4-1.8,7.6-5.2,8.1c-2.7,0.4-5.2-1.3-6.5-4"/>
</svg>
