<?xml version="1.0" encoding="utf-8"?>
<!-- Generator: Adobe Illustrator 28.3.0, SVG Export Plug-In . SVG Version: 6.00 Build 0)  -->
<svg version="1.1" id="Calque_1" xmlns="http://www.w3.org/2000/svg" xmlns:xlink="http://www.w3.org/1999/xlink" x="0px" y="0px"
	 viewBox="130 506 335 130" style="enable-background:new 0 0 595.3 841.9;" xml:space="preserve">
<style type="text/css">
	.st0{fill:#FFFFFF;}
	.st1{fill:none;stroke:#FFFFFF;stroke-width:2;stroke-linecap:round;stroke-miterlimit:10;}
</style>
<g>
	<path class="st0" d="M163.1,549.6c-0.3,0-0.6,0-1,0.1c-0.4,0.1-0.8,0.1-1.2,0.2c-0.4,0.1-0.7,0.2-1.2,0.4c-0.4,0.2-0.8,0.4-1.2,0.5
		c-0.4,0.1-0.7,0.4-1.2,0.7v43.2h-15.3v-59.2h15.3c0,0.5-0.1,1-0.2,1.4c-0.1,0.4-0.3,0.9-0.4,1.4c-0.2,0.7-0.4,1.2-0.5,1.5
		c-0.1,0.3-0.4,0.8-0.7,1.6c-0.1,0.2-0.3,0.5-0.4,0.7c-0.1,0.2-0.3,0.5-0.4,0.6l0.8,0.7c0.6-1,1.4-1.9,2.4-2.9c1-1,1.9-1.8,2.8-2.4
		c1-0.7,2.1-1.3,3-1.8c1-0.5,2-0.9,3.1-1.1c0.5-0.1,1-0.2,1.5-0.2c0.5-0.1,1-0.1,1.5-0.1c0.7,0,1.4,0.1,2.1,0.2
		c0.7,0.2,1.4,0.4,2.1,0.7c0.7,0.4,1.3,0.8,1.9,1.3c0.6,0.5,1.1,1,1.6,1.5c0.2,0.3,0.5,0.6,0.7,1c0.2,0.4,0.4,0.7,0.6,1.1
		c0.8-0.7,1.7-1.3,2.7-2c1-0.7,1.9-1.2,2.8-1.6c0.9-0.5,1.8-0.9,2.9-1.2c1-0.4,2-0.6,2.9-0.7c0.5,0,1-0.1,1.5-0.1
		c0.5,0,0.9-0.1,1.4-0.1c1.7,0,3.2,0.2,4.5,0.7c1.2,0.5,2.4,1.1,3.4,1.9c1,0.8,1.9,1.9,2.6,3.1c0.7,1.3,1.2,2.6,1.6,4.1
		c0.4,1.6,0.5,3.4,0.5,5.2v44.9h-15.3v-41.5c0-0.5,0-1-0.1-1.3c-0.1-0.3-0.2-0.7-0.5-1.1c-0.2-0.4-0.5-0.6-0.8-0.8
		c-0.3-0.2-0.6-0.3-0.9-0.4c-0.3-0.1-0.7-0.1-1.2-0.1c-2.1,0-4,0.9-5.8,2.7v42.5h-13.9v-41.5c0-1-0.2-1.8-0.6-2.3
		c-0.4-0.4-0.6-0.6-0.9-0.8c-0.2-0.2-0.5-0.3-1-0.5C164.1,549.6,163.6,549.6,163.1,549.6z"/>
	<path class="st0" d="M211.4,522.6c0-1.9,0.5-3.7,1.6-5.2c0.5-0.7,1.1-1.4,1.8-1.9s1.5-0.9,2.3-1.2c0.9-0.3,1.8-0.4,2.7-0.4
		c0.9,0,1.8,0.1,2.7,0.4c0.9,0.2,1.7,0.6,2.4,1.2c1.5,1.1,2.4,2.5,3,4.3c0.3,0.9,0.4,1.9,0.4,2.9c0,2.5-0.8,4.6-2.4,6.3
		c-1.6,1.7-3.6,2.6-6.1,2.6c-2,0-3.6-0.6-5-1.7c-0.7-0.5-1.3-1.2-1.8-1.9c-0.5-0.7-0.9-1.6-1.2-2.5
		C211.6,524.6,211.4,523.6,211.4,522.6z M212.3,594.8v-59.2h15.3v59.2H212.3z"/>
	<path class="st0" d="M249,535.6l5.6,14.1c0.1,0.3,0.2,0.6,0.3,0.8c0.1,0.3,0.2,0.6,0.3,0.9c0,0.5,0.1,0.8,0.1,0.8c0,0,0,0,0,0.1
		c0,0,0.1,0.4,0.2,1c0,0.2,0,0.3,0,0.5v0.5h1.1c0-0.4,0-0.7,0-1c0-0.2,0.1-0.5,0.2-1c0.1-0.6,0.2-1.2,0.4-1.8c0-0.1,0.1-0.3,0.1-0.4
		c0-0.1,0.1-0.3,0.1-0.4l5.5-14.1h16l-14.1,29.6l14.1,29.6h-16l-5.9-14.2c-0.1-0.3-0.2-0.5-0.2-0.6c-0.1-0.1-0.2-0.5-0.4-1.2
		c-0.1-0.3-0.2-0.6-0.2-0.9c0-0.3-0.1-0.6-0.1-1c0-0.1-0.1-0.3-0.1-0.5v-0.4H255c0,0.4,0,0.7,0,1c0,0.2-0.1,0.5-0.1,0.9
		c-0.1,0.4-0.2,0.7-0.2,1c0,0.3-0.1,0.6-0.2,0.9c0,0.1-0.1,0.3-0.1,0.4c0,0.1-0.1,0.3-0.1,0.4l-5.2,14.1h-16.3l14.1-29.6l-14.1-29.6
		H249z"/>
	<path class="st0" d="M279.3,579.4c0-2.4,0.3-4.5,1-6.5c0.6-2,1.6-3.8,3-5.3c1.4-1.6,3-2.9,5.1-4c2-1.1,4.4-2.1,7.2-2.9
		c1.4-0.4,2.9-0.8,4.5-1.1c1.6-0.3,3.3-0.6,5-0.8v-4.5c0-0.5-0.1-1-0.2-1.5c-0.2-0.6-0.4-1-0.6-1.3c-0.3-0.4-0.6-0.7-0.9-1
		c-0.3-0.3-0.7-0.5-1.3-0.7c-0.5-0.1-1-0.2-1.5-0.2c-0.4,0-0.9,0.1-1.5,0.2c-0.6,0.1-1,0.3-1.3,0.6c-0.7,0.5-1.2,1.3-1.5,2.2
		c-0.2,0.5-0.3,1-0.3,1.5v1.6h-15v-4c0-2,0.3-3.9,0.9-5.7c0.6-1.8,1.4-3.4,2.5-4.8c2.2-2.7,5.4-4.5,9.6-5.6c1-0.2,2.1-0.4,3.2-0.5
		c1.2-0.1,2.3-0.2,3.6-0.2c6.2,0,11,1.5,14.5,4.4c3.4,2.9,5.1,7,5.1,12.3v43.1H305c0-0.4,0-0.9,0.1-1.5c0.1-0.6,0.2-1.1,0.3-1.5
		c0.2-0.5,0.4-1,0.6-1.5c0.2-0.5,0.4-1,0.7-1.5c0.2-0.4,0.5-0.9,1-1.4l-0.8-0.7c-0.7,1.3-1.5,2.3-2.2,3.2s-1.6,1.6-2.4,2.3
		c-0.8,0.7-1.7,1.3-2.7,1.7c-1,0.5-2.1,0.8-3.3,1.1c-0.5,0.1-1.1,0.2-1.7,0.3c-0.6,0.1-1.1,0.1-1.7,0.1c-1.5,0-3-0.2-4.4-0.6
		c-1.4-0.4-2.8-1.2-4-2.2c-1.1-0.9-2.1-2-2.9-3.4c-0.8-1.4-1.3-2.9-1.7-4.5c-0.2-0.8-0.4-1.7-0.5-2.6
		C279.4,581.3,279.3,580.4,279.3,579.4z M295,577.1c0,0.7,0.1,1.3,0.2,1.9c0.2,0.6,0.4,1,0.6,1.3c0.6,0.9,1.4,1.5,2.4,1.7
		c0.5,0.2,1.1,0.3,1.6,0.3c1.5,0,3.3-0.6,5.3-1.7v-12.6c-1.4,0.5-2.6,0.9-3.7,1.4c-1.1,0.5-2,1-2.9,1.6c-0.7,0.5-1.4,1.1-1.9,1.8
		c-0.6,0.6-1,1.3-1.2,2.1C295.1,575.6,295,576.4,295,577.1z"/>
	<path class="st0" d="M327.1,535.6h15.3c0,0.5,0,0.9-0.1,1.3c-0.1,0.4-0.2,0.9-0.5,1.5c-0.2,0.7-0.4,1.1-0.4,1.2
		c0,0.1-0.1,0.3-0.2,0.4c-0.1,0.2-0.3,0.6-0.6,1.4c-0.2,0.5-0.5,1-0.8,1.4l0.8,0.7c0.7-1.1,1.4-2,2.1-2.9c0.7-0.8,1.6-1.6,2.7-2.4
		c1.8-1.3,4-2.1,6.5-2.4c1.2-0.2,2.5-0.3,4.1-0.3h2.7l-0.7,14.6h-4.3c-3.6,0-6.3,0.6-8.2,1.7c-2,1.2-3,2.9-3,5v37.8h-15.3V535.6z"/>
	<path class="st0" d="M381.7,521.4v3.9c0,5-2,8.6-6.1,10.6v1.1c2-0.9,4.1-1.4,6.5-1.4h10.8v14.3h-11.2v28.2c0,1.4,0.7,2,2,2h9.2
		l0.7,14.6H380c-1.8,0-3.4-0.2-4.9-0.5c-1.5-0.4-2.7-0.9-3.8-1.6c-1.1-0.6-2-1.5-2.7-2.7c-0.7-1.1-1.3-2.4-1.6-3.7
		c-0.4-1.5-0.5-3.1-0.5-4.9v-31.4H361v-14.3h5.4v-14.3H381.7z"/>
	<path class="st0" d="M424.9,595.5c-3.4,0-6.7-0.5-9.7-1.6s-5.7-2.5-8-4.3c-2.4-1.8-4.6-3.9-6.4-6.4c-1.8-2.4-3.3-5.3-4.3-8.6
		c-1-3-1.5-6.2-1.5-9.6c0-3.3,0.5-6.4,1.5-9.5c1-3,2.4-5.8,4.2-8.3c1.9-2.6,4.1-4.8,6.6-6.6c2.5-1.8,5.2-3.2,8.1-4.1
		c1.5-0.5,3-0.9,4.6-1.2c1.6-0.3,3.2-0.4,4.9-0.4c3.2,0,6.4,0.5,9.4,1.6c3.1,1,5.8,2.4,8.3,4.2c2.4,1.8,4.5,4,6.4,6.5
		c1.9,2.5,3.3,5.3,4.3,8.3c0.5,1.5,0.8,3,1.1,4.6c0.3,1.6,0.4,3.2,0.4,4.8c0,2.7-0.4,5.6-1.3,8.8s-2.3,6.2-4.5,9.2
		c-1.8,2.5-4,4.7-6.5,6.6c-2.5,1.9-5.3,3.3-8.2,4.3c-1.5,0.5-3,0.9-4.6,1.2C428.1,595.3,426.5,595.5,424.9,595.5z M425,580.9
		c1.5,0,3-0.2,4.5-0.7c1.5-0.5,2.9-1.2,4-2.2c1.5-1.2,2.7-2.5,3.5-3.8c0.8-1.4,1.4-2.7,1.7-3.8c0.2-0.8,0.4-1.6,0.5-2.4
		s0.2-1.7,0.2-2.6c0-1.8-0.2-3.4-0.7-5c-0.5-1.6-1.2-3-2-4.3c-0.8-1.1-1.7-2.1-2.9-3.2c-1.2-1-2.6-1.8-4.3-2.4
		c-1.5-0.5-3-0.7-4.6-0.7c-3.3,0-6.1,1-8.6,2.9c-1.2,0.9-2.2,2-3.2,3.4c-1,1.3-1.7,2.8-2.1,4.3c-0.2,0.8-0.4,1.6-0.5,2.4
		c-0.1,0.9-0.2,1.7-0.2,2.6c0,1.4,0.2,2.9,0.6,4.5c0.4,1.6,1.2,3.2,2.2,4.8c0.9,1.3,1.9,2.4,3.1,3.3c1.2,1,2.6,1.7,4.1,2.2
		C421.8,580.6,423.4,580.9,425,580.9z"/>
</g>
<g>
	<path class="st0" d="M281.3,621.1c-0.4,0-0.6-0.1-0.6-0.3c0-0.2,0.2-0.3,0.7-0.5c0.3-0.1,0.6-0.2,0.8-0.4s0.4-0.4,0.4-0.8V605
		c0-0.5-0.1-1-0.3-1.3c-0.2-0.4-0.5-0.6-1-0.7c-0.2,0-0.3-0.2-0.3-0.4c0-0.2,0.1-0.3,0.2-0.3c0.3-0.1,0.6-0.2,1-0.3
		c0.4-0.1,0.8-0.2,1.1-0.4c0.4-0.1,0.7-0.3,1.1-0.4c0.1,0,0.1-0.1,0.2-0.1c0.1,0,0.1,0,0.1,0.1c0,0,0.1,0.1,0.1,0.1
		c0,0.1,0,0.3-0.1,0.5c0,0.2-0.1,0.6-0.1,1.1s-0.1,1.3-0.1,2.3v4.9c0,0.3,0,0.5,0,0.7s0.1,0.3,0.2,0.4c0.3-0.2,0.7-0.5,1.1-0.8
		c0.4-0.3,0.9-0.5,1.5-0.7c0.5-0.2,1.1-0.3,1.7-0.3c0.9,0,1.7,0.4,2.3,1.1c0.6,0.7,0.9,1.7,0.9,2.8v6c0,0.4,0.1,0.7,0.4,0.8
		c0.2,0.2,0.5,0.3,0.8,0.4c0.2,0.1,0.4,0.1,0.5,0.2c0.1,0.1,0.2,0.2,0.2,0.3c0,0.2-0.2,0.3-0.6,0.3s-0.7,0-0.9,0
		c-0.2,0-0.4-0.1-0.6-0.1s-0.4,0-0.8,0c-0.3,0-0.6,0-0.8,0c-0.2,0-0.4,0-0.6,0.1c-0.2,0-0.5,0-0.9,0c-0.4,0-0.6-0.1-0.6-0.3
		c0-0.1,0.1-0.2,0.2-0.3c0.1,0,0.3-0.1,0.5-0.2c0.3-0.1,0.5-0.2,0.8-0.4c0.2-0.2,0.3-0.5,0.3-0.8v-5.8c0-0.5-0.1-0.9-0.4-1.3
		c-0.3-0.4-0.6-0.7-1-0.9c-0.4-0.2-0.8-0.3-1.2-0.3c-0.4,0-0.8,0.1-1.2,0.2c-0.5,0.1-0.8,0.3-1.1,0.5c-0.3,0.2-0.5,0.5-0.6,0.8
		c-0.1,0.3-0.2,0.7-0.2,1.3v5.8c0,0.4,0.1,0.6,0.4,0.8c0.2,0.2,0.5,0.3,0.8,0.4c0.2,0.1,0.4,0.1,0.5,0.2c0.1,0.1,0.2,0.2,0.2,0.3
		c0,0.2-0.2,0.3-0.6,0.3c-0.4,0-0.7,0-0.9,0s-0.4-0.1-0.5-0.1c-0.2,0-0.4,0-0.8,0c-0.3,0-0.6,0-0.8,0s-0.4,0-0.6,0.1
		C282,621.1,281.7,621.1,281.3,621.1z"/>
	<path class="st0" d="M301.1,621.4c-0.3,0-0.7-0.1-1-0.4c-0.4-0.3-0.6-0.6-0.9-1c-0.2-0.4-0.4-0.7-0.4-1.1c0-0.6,0.2-1.1,0.5-1.4
		c0.3-0.3,0.8-0.7,1.5-0.9l2.9-1.2c0.4-0.2,0.6-0.3,0.7-0.4c0.1-0.1,0.1-0.4,0.1-0.7l0.1-1.8c0-0.5-0.1-0.9-0.4-1.3
		c-0.3-0.4-0.7-0.5-1.3-0.5c-0.3,0-0.6,0-0.9,0.1c-0.3,0.1-0.5,0.2-0.7,0.4c-0.1,0.1-0.2,0.2-0.2,0.3c0,0.2-0.1,0.3-0.1,0.5
		c0,0.1,0,0.2,0,0.3s0,0.2,0,0.3c0,0.1-0.1,0.2-0.4,0.4c-0.2,0.2-0.5,0.3-0.8,0.4c-0.3,0.1-0.5,0.2-0.7,0.2c-0.1,0-0.2,0-0.2-0.1
		c-0.1,0-0.1-0.1-0.1-0.2c0-0.3,0.1-0.6,0.3-1c0.2-0.3,0.5-0.7,0.8-1c0.4-0.4,0.9-0.7,1.4-1s1-0.5,1.5-0.7c0.5-0.2,0.9-0.3,1.3-0.3
		c0.7,0,1.2,0.2,1.7,0.7s0.7,1.1,0.6,1.8l-0.1,6.8c0,0.4,0.1,0.7,0.3,1s0.4,0.4,0.8,0.4c0.5,0,0.8-0.1,1-0.3
		c0.1-0.1,0.2-0.1,0.2-0.1c0.1,0,0.2,0,0.2,0.1s0.1,0.1,0.1,0.2c0,0.2-0.1,0.4-0.3,0.6c-0.3,0.3-0.6,0.5-1,0.7
		c-0.4,0.2-0.7,0.3-1,0.3c-0.9,0-1.6-0.5-2.1-1.5h-0.1c-0.6,0.5-1.2,0.9-1.8,1.1C302.2,621.3,301.7,621.4,301.1,621.4z M302.4,620.1
		c0.4,0,0.7-0.1,1-0.2c0.3-0.1,0.5-0.3,0.7-0.5c0.1-0.1,0.2-0.2,0.2-0.4c0.1-0.2,0.1-0.4,0.1-0.8l0.1-1.4c0-0.2,0-0.4,0-0.5
		c0-0.1-0.1-0.1-0.2-0.1c0,0-0.1,0-0.2,0c-0.1,0-0.2,0.1-0.4,0.1c-1,0.4-1.7,0.7-2.1,1.1s-0.6,0.7-0.6,1.1c0,0.5,0.1,0.9,0.4,1.1
		C301.7,620,302,620.1,302.4,620.1z"/>
	<path class="st0" d="M313.1,629.1c-0.1,0-0.2,0-0.4,0c-0.2,0-0.2-0.1-0.2-0.2c0-0.2,0.1-0.3,0.2-0.3s0.3-0.1,0.4-0.2
		c0.3-0.1,0.6-0.2,0.8-0.3s0.4-0.4,0.4-0.8v-14.4c0-0.2,0-0.4-0.1-0.7s-0.2-0.6-0.4-0.9c-0.2-0.3-0.4-0.5-0.8-0.5
		c-0.1,0-0.1-0.1-0.2-0.1s-0.1-0.2-0.1-0.2c0-0.1,0-0.2,0.1-0.2c0-0.1,0.1-0.1,0.1-0.1c0.7-0.2,1.3-0.4,1.8-0.6
		c0.5-0.2,1-0.4,1.4-0.6c0,0,0,0,0,0c0,0,0,0,0,0c0,0,0.1,0,0.1,0.1c0,0.1,0.1,0.1,0.1,0.2c0,0.2,0,0.4-0.1,0.8
		c0,0.4-0.1,0.7-0.1,0.9c0,0.2,0,0.2,0,0.3c0.2-0.2,0.5-0.4,1-0.7c0.5-0.3,1.1-0.6,1.7-0.8c0.6-0.2,1.3-0.4,1.8-0.4
		c1,0,1.8,0.3,2.5,0.8c0.7,0.5,1.2,1.2,1.6,2c0.4,0.8,0.6,1.7,0.6,2.6c0,0.9-0.2,1.7-0.5,2.5c-0.3,0.8-0.8,1.5-1.4,2.2
		c-0.6,0.6-1.3,1.2-2,1.5s-1.6,0.6-2.5,0.6c-0.3,0-0.6,0-1-0.1c-0.4-0.1-0.7-0.2-1.1-0.3c-0.3-0.1-0.6-0.3-0.8-0.5
		c0,0,0,0.1-0.1,0.3c0,0.2,0,0.4,0,0.7c0,0.2,0,0.4,0,0.4v5.3c0,0.2,0.1,0.4,0.3,0.6c0.2,0.1,0.4,0.2,0.7,0.3
		c0.3,0.1,0.5,0.1,0.7,0.2c0.2,0.1,0.3,0.1,0.4,0.2s0.2,0.2,0.2,0.3c0,0.1-0.1,0.2-0.2,0.2s-0.3,0-0.4,0c-0.5,0-1,0-1.4-0.1
		c-0.4,0-0.8-0.1-1.3-0.1c-0.3,0-0.6,0-0.8,0c-0.2,0-0.4,0-0.6,0.1S313.5,629.1,313.1,629.1z M319.8,620.6c0.3,0,0.6-0.1,1-0.3
		c0.4-0.2,0.8-0.4,1.2-0.8s0.7-0.9,1-1.5c0.3-0.6,0.4-1.4,0.4-2.4c0-1.1-0.1-2-0.4-2.6c-0.3-0.7-0.6-1.2-1-1.5
		c-0.4-0.3-0.8-0.6-1.3-0.7c-0.4-0.1-0.8-0.2-1.1-0.2c-0.5,0-0.9,0.1-1.4,0.3s-0.9,0.4-1.2,0.6c-0.3,0.2-0.5,0.4-0.5,0.6
		c0,0.4,0,0.8,0,1.3c0,0.4,0,0.8,0,1.2c0,0.4,0,0.8,0,1.1c0,0.3,0,0.6,0,0.7c0,0.8,0.2,1.5,0.5,2.1c0.3,0.6,0.8,1.2,1.3,1.5
		C318.7,620.4,319.2,620.6,319.8,620.6z"/>
	<path class="st0" d="M330.8,629.1c-0.1,0-0.2,0-0.4,0c-0.2,0-0.2-0.1-0.2-0.2c0-0.2,0.1-0.3,0.2-0.3s0.3-0.1,0.4-0.2
		c0.3-0.1,0.6-0.2,0.8-0.3s0.4-0.4,0.4-0.8v-14.4c0-0.2,0-0.4-0.1-0.7s-0.2-0.6-0.4-0.9c-0.2-0.3-0.4-0.5-0.8-0.5
		c-0.1,0-0.1-0.1-0.2-0.1s-0.1-0.2-0.1-0.2c0-0.1,0-0.2,0.1-0.2c0-0.1,0.1-0.1,0.1-0.1c0.7-0.2,1.3-0.4,1.8-0.6
		c0.5-0.2,1-0.4,1.4-0.6c0,0,0,0,0,0c0,0,0,0,0,0c0,0,0.1,0,0.1,0.1c0,0.1,0.1,0.1,0.1,0.2c0,0.2,0,0.4-0.1,0.8
		c0,0.4-0.1,0.7-0.1,0.9c0,0.2,0,0.2,0,0.3c0.2-0.2,0.5-0.4,1-0.7c0.5-0.3,1.1-0.6,1.7-0.8c0.6-0.2,1.3-0.4,1.8-0.4
		c1,0,1.8,0.3,2.5,0.8c0.7,0.5,1.2,1.2,1.6,2c0.4,0.8,0.6,1.7,0.6,2.6c0,0.9-0.2,1.7-0.5,2.5c-0.3,0.8-0.8,1.5-1.4,2.2
		c-0.6,0.6-1.3,1.2-2,1.5s-1.6,0.6-2.5,0.6c-0.3,0-0.6,0-1-0.1c-0.4-0.1-0.7-0.2-1.1-0.3c-0.3-0.1-0.6-0.3-0.8-0.5
		c0,0,0,0.1-0.1,0.3c0,0.2,0,0.4,0,0.7c0,0.2,0,0.4,0,0.4v5.3c0,0.2,0.1,0.4,0.3,0.6c0.2,0.1,0.4,0.2,0.7,0.3
		c0.3,0.1,0.5,0.1,0.7,0.2c0.2,0.1,0.3,0.1,0.4,0.2s0.2,0.2,0.2,0.3c0,0.1-0.1,0.2-0.2,0.2s-0.3,0-0.4,0c-0.5,0-1,0-1.4-0.1
		c-0.4,0-0.8-0.1-1.3-0.1c-0.3,0-0.6,0-0.8,0c-0.2,0-0.4,0-0.6,0.1S331.1,629.1,330.8,629.1z M337.4,620.6c0.3,0,0.6-0.1,1-0.3
		c0.4-0.2,0.8-0.4,1.2-0.8s0.7-0.9,1-1.5c0.3-0.6,0.4-1.4,0.4-2.4c0-1.1-0.1-2-0.4-2.6c-0.3-0.7-0.6-1.2-1-1.5
		c-0.4-0.3-0.8-0.6-1.3-0.7c-0.4-0.1-0.8-0.2-1.1-0.2c-0.5,0-0.9,0.1-1.4,0.3s-0.9,0.4-1.2,0.6c-0.3,0.2-0.5,0.4-0.5,0.6
		c0,0.4,0,0.8,0,1.3c0,0.4,0,0.8,0,1.2c0,0.4,0,0.8,0,1.1c0,0.3,0,0.6,0,0.7c0,0.8,0.2,1.5,0.5,2.1c0.3,0.6,0.8,1.2,1.3,1.5
		C336.4,620.4,336.9,620.6,337.4,620.6z"/>
	<path class="st0" d="M348.4,629.1c-0.4,0-0.7-0.1-1-0.3c-0.3-0.2-0.5-0.5-0.5-0.9c0-0.3,0.1-0.6,0.2-0.9c0.2-0.3,0.4-0.4,0.7-0.4
		c0.2,0,0.4,0,0.6,0.1c0.2,0.1,0.4,0.1,0.5,0.1c0.1,0,0.2,0,0.3-0.1s0.2-0.1,0.2-0.2c0.2-0.3,0.4-0.8,0.7-1.3s0.6-1.1,0.9-1.7
		c0.3-0.6,0.6-1.3,0.8-2c0.1-0.2,0.1-0.4,0.1-0.7c0-0.2,0-0.3,0-0.4s0-0.3-0.1-0.4l-3.3-8.3c-0.1-0.3-0.3-0.6-0.5-0.9
		c-0.2-0.3-0.5-0.4-0.8-0.5c-0.2-0.1-0.3-0.1-0.4-0.2c-0.1-0.1-0.2-0.2-0.2-0.3c0-0.1,0.1-0.2,0.2-0.2c0.1,0,0.3,0,0.4,0
		c0.4,0,0.7,0,0.8,0c0.2,0,0.3,0,0.5,0.1c0.2,0,0.4,0,0.7,0c0.3,0,0.6,0,0.8,0c0.2,0,0.4-0.1,0.5-0.1c0.2,0,0.5,0,0.9,0
		c0.1,0,0.2,0,0.4,0.1c0.1,0,0.2,0.1,0.2,0.2c0,0.1-0.1,0.3-0.3,0.4c-0.2,0.1-0.4,0.2-0.5,0.2c-0.2,0.1-0.3,0.2-0.4,0.3
		c-0.1,0.1-0.1,0.3-0.1,0.6c0,0.1,0,0.3,0.1,0.4c0.1,0.2,0.1,0.3,0.1,0.4l2.3,5.7c0,0.1,0.1,0.2,0.2,0.2c0.1,0,0.1-0.1,0.1-0.2
		l2-5.2c0.1-0.1,0.1-0.3,0.2-0.5c0-0.2,0.1-0.4,0.1-0.5c0-0.4-0.1-0.6-0.2-0.8c-0.1-0.1-0.2-0.2-0.4-0.3c-0.2-0.1-0.3-0.2-0.5-0.3
		c-0.2-0.1-0.3-0.3-0.3-0.4c0-0.1,0.1-0.2,0.2-0.2c0.1,0,0.3-0.1,0.4-0.1c0.3,0,0.5,0,0.8,0.1c0.3,0,0.7,0.1,1.2,0.1
		c0.4,0,0.6,0,0.8,0c0.2,0,0.3-0.1,0.4-0.1c0.1,0,0.3,0,0.5,0c0.1,0,0.2,0,0.4,0s0.2,0.1,0.2,0.2c0,0.1-0.1,0.2-0.2,0.3
		c-0.1,0.1-0.3,0.1-0.4,0.2c-0.3,0.1-0.6,0.3-0.9,0.7c-0.3,0.4-0.6,0.8-0.8,1.2l-3.9,9.2c0,0.1-0.1,0.3-0.3,0.7s-0.4,1-0.7,1.6
		c-0.3,0.6-0.6,1.3-0.9,2.1c-0.3,0.7-0.6,1.4-0.9,2.1c-0.2,0.4-0.4,0.7-0.7,0.9C349.2,629,348.8,629.1,348.4,629.1z"/>
	<path class="st0" d="M374.6,621.4c-0.6,0-1.1-0.1-1.6-0.3s-0.9-0.4-1.3-0.8c-0.1-0.2-0.2-0.6-0.2-1c0-0.5-0.1-0.9-0.1-1.2
		c0-0.2,0.1-0.3,0.4-0.3c0.1,0,0.1,0,0.2,0s0.1,0.1,0.1,0.2c0.2,0.9,0.6,1.6,1.2,2s1.1,0.6,1.6,0.6s1-0.2,1.4-0.6
		c0.4-0.4,0.6-0.8,0.6-1.4c0-0.5-0.2-1-0.5-1.3s-0.9-0.8-1.8-1.3c-0.6-0.4-1.2-0.8-1.6-1.1c-0.4-0.4-0.7-0.7-0.9-1.1
		c-0.2-0.4-0.3-0.8-0.3-1.3c0-0.6,0.1-1.2,0.4-1.6c0.3-0.5,0.7-0.9,1.3-1.2c0.6-0.3,1.3-0.4,2.1-0.4c0.6,0,1,0.1,1.4,0.2
		c0.4,0.1,0.7,0.2,0.9,0.4c0.2,0.2,0.3,0.5,0.4,1c0.1,0.4,0.2,0.9,0.2,1.3c0,0.1-0.1,0.2-0.3,0.2c-0.1,0-0.2,0-0.3-0.1
		c-0.1,0-0.2-0.1-0.2-0.2c-0.2-0.6-0.6-1.1-0.9-1.4c-0.4-0.3-0.8-0.5-1.4-0.5c-0.5,0-0.9,0.1-1.3,0.4c-0.4,0.3-0.6,0.7-0.6,1.2
		c0,0.4,0.1,0.8,0.4,1.2c0.3,0.3,0.8,0.7,1.5,1.2c1.1,0.6,1.9,1.2,2.5,1.7s0.8,1.3,0.8,2.1c0,1-0.4,1.9-1.2,2.5
		C376.8,621.1,375.8,621.4,374.6,621.4z"/>
	<path class="st0" d="M388,621.4c-0.9,0-1.7-0.3-2.2-0.9s-0.8-1.4-0.8-2.5v-6.6c0-0.2-0.1-0.3-0.2-0.3c-0.1-0.1-0.4-0.1-0.7-0.1
		h-0.2c-0.1,0-0.2-0.1-0.2-0.2c-0.1-0.1-0.1-0.2-0.1-0.4c0,0,0-0.1,0.1-0.2c0.1-0.1,0.1-0.1,0.1-0.1c0.4-0.3,0.7-0.5,1-0.8
		c0.3-0.3,0.6-0.5,0.9-0.8c0.3-0.3,0.5-0.5,0.6-0.7c0.1-0.1,0.2-0.2,0.2-0.2c0.1-0.1,0.1-0.1,0.2-0.1c0.1,0,0.2,0,0.3,0.1
		s0.1,0.1,0.1,0.3l-0.1,1.3c0,0.2,0,0.4,0.1,0.4c0.1,0.1,0.3,0.1,0.5,0.1h3.2c0.1,0,0.1,0.1,0.2,0.2c0.1,0.1,0.1,0.3,0.1,0.4
		c0,0.2,0,0.3-0.1,0.5c-0.1,0.2-0.1,0.2-0.2,0.2h-2.8c-0.5,0-0.8,0-0.9,0.1c-0.1,0.1-0.2,0.3-0.2,0.7v5.6c0,0.8,0.2,1.4,0.5,1.8
		c0.3,0.4,0.8,0.7,1.4,0.7c0.5,0,1,0,1.3-0.1c0.3-0.1,0.6-0.2,0.8-0.4c0,0,0.1-0.1,0.1-0.1c0.1,0,0.1,0,0.2,0.1s0,0.2,0,0.3
		c0,0.1-0.2,0.3-0.5,0.6c-0.3,0.3-0.7,0.5-1.2,0.8C389.1,621.3,388.6,621.4,388,621.4z"/>
	<path class="st0" d="M404.8,621.6c-0.1,0-0.2-0.1-0.2-0.2c0-0.2,0-0.5,0.1-0.8c0-0.4,0.1-0.7,0.1-0.9c0,0,0-0.1,0-0.1s0-0.1,0-0.1
		c-0.7,0.7-1.5,1.2-2.2,1.5c-0.7,0.3-1.6,0.5-2.5,0.5c-0.6,0-1.2-0.1-1.6-0.4c-0.5-0.3-0.9-0.6-1.2-1.1c-0.3-0.5-0.4-1.1-0.4-1.9
		v-5.8c0-0.4-0.1-0.7-0.3-1c-0.2-0.2-0.5-0.5-0.9-0.6c-0.1,0-0.2-0.1-0.3-0.1c-0.1-0.1-0.1-0.2-0.1-0.3c0-0.2,0-0.3,0.1-0.3
		c0.1-0.1,0.2-0.1,0.3-0.1c0.6,0,1.1-0.1,1.5-0.2c0.3-0.1,0.8-0.2,1.3-0.3c0.1,0,0.1,0,0.1,0s0.1,0,0.1,0c0.2,0,0.3,0.1,0.3,0.4
		c-0.1,0.4-0.1,0.8-0.1,1.1c0,0.3,0,0.7,0,1.1v5.5c0,0.5,0.1,0.9,0.3,1.3c0.2,0.4,0.5,0.7,0.9,1c0.4,0.2,0.8,0.4,1.1,0.4
		c0.5,0,0.9,0,1.3-0.1s0.7-0.2,1.1-0.5c0.2-0.2,0.5-0.4,0.8-0.7c0.3-0.3,0.5-0.8,0.5-1.4v-5.2c0-0.4-0.1-0.7-0.4-0.9
		c-0.2-0.2-0.5-0.3-0.8-0.4s-0.5-0.1-0.7-0.1c-0.2,0-0.3,0-0.4-0.1s-0.2-0.2-0.2-0.4c0-0.2,0.1-0.3,0.2-0.3s0.3-0.1,0.4-0.1
		c0.6,0,1.1,0,1.5-0.1s0.7-0.1,1-0.1c0.3-0.1,0.6-0.1,1-0.2c0,0,0.1,0,0.1,0c0.1,0,0.1,0,0.1,0c0.2,0,0.4,0.1,0.4,0.3
		c0,0,0,0.1,0,0.1c0,0,0,0.1,0,0.2s0,0.2-0.1,0.5c0,0.3-0.1,0.5-0.1,0.8c0,0.3,0,0.5,0,0.7v6.6c0,0.5,0.1,0.9,0.2,1.1
		c0.1,0.2,0.2,0.3,0.4,0.3c0.2,0,0.4,0,0.7,0c0.3,0,0.5,0,0.6,0c0.1,0,0.2,0,0.3,0.1c0.1,0,0.1,0.1,0.1,0.3c0,0.2,0,0.3-0.1,0.3
		c-0.1,0-0.2,0.1-0.3,0.1c-0.7,0.1-1.4,0.2-1.9,0.4c-0.5,0.2-1,0.4-1.4,0.5c-0.1,0-0.1,0.1-0.3,0.1
		C405,621.6,404.9,621.6,404.8,621.6z"/>
	<path class="st0" d="M422.4,621.6c0,0-0.1,0-0.2-0.1c-0.1-0.1-0.1-0.1-0.1-0.2c0-0.2,0-0.5,0.1-0.8c0-0.3,0.1-0.6,0.1-0.9v-0.2
		c-0.3,0.4-0.7,0.9-1.4,1.3c-0.6,0.5-1.4,0.7-2.4,0.7c-1.1,0-2-0.3-2.8-0.9c-0.8-0.6-1.4-1.3-1.8-2.2c-0.4-0.9-0.6-1.8-0.6-2.8
		c0-1.1,0.3-2.1,0.8-3.1c0.5-1,1.2-1.8,2.2-2.4c1-0.6,2.1-0.9,3.4-0.9c0.4,0,0.8,0,1.1,0.1c0.4,0.1,0.7,0.1,0.9,0.2
		c0.2,0.1,0.3,0.1,0.4,0.1c0.1,0,0.2-0.2,0.2-0.7v-4c0-0.8-0.1-1.3-0.4-1.6c-0.2-0.3-0.6-0.4-1-0.5c-0.2,0-0.3-0.2-0.3-0.4
		c0-0.2,0.1-0.3,0.2-0.3c0.8-0.2,1.5-0.4,2-0.6c0.5-0.2,0.8-0.3,1.1-0.5c0.1,0,0.1-0.1,0.2-0.1c0.1,0,0.1,0,0.2,0
		c0.1,0,0.2,0.1,0.2,0.2c0,0.1,0,0.3,0,0.6c0,0.3-0.1,0.7-0.1,1.2c0,0.5-0.1,1.2-0.1,2.1v12.8c0,0.6,0,1.1,0.1,1.4
		c0.1,0.3,0.2,0.4,0.5,0.4c0.1,0,0.3,0,0.5,0c0.2,0,0.5,0,0.7-0.1c0.3,0,0.5,0.1,0.5,0.3c0,0.1,0,0.3-0.1,0.4
		c-0.1,0.1-0.2,0.2-0.3,0.2c-0.5,0.1-1,0.2-1.6,0.3c-0.5,0.1-1.1,0.4-1.8,0.6c-0.2,0.1-0.3,0.1-0.3,0.1
		C422.6,621.6,422.5,621.6,422.4,621.6z M419.6,620c0.5,0,1-0.1,1.4-0.4c0.5-0.3,0.9-0.6,1.2-1l0-5.1c0-0.5-0.1-1-0.4-1.5
		c-0.3-0.5-0.7-0.9-1.2-1.2c-0.5-0.3-1.1-0.5-1.8-0.5c-0.4,0-0.9,0.1-1.5,0.4c-0.5,0.3-1,0.7-1.4,1.4c-0.4,0.7-0.6,1.6-0.6,2.9
		c0,1.1,0.2,1.9,0.5,2.6c0.3,0.7,0.7,1.1,1.2,1.5s0.9,0.6,1.4,0.7S419.3,620,419.6,620z"/>
	<path class="st0" d="M430.8,621.1c-0.2,0-0.3,0-0.4-0.1c-0.1,0-0.2-0.1-0.2-0.2c0-0.2,0.1-0.3,0.2-0.3c0.1-0.1,0.3-0.1,0.4-0.1
		c0.4-0.1,0.7-0.2,0.9-0.4c0.2-0.1,0.3-0.4,0.3-0.7v-6.2c0-0.5-0.1-1-0.3-1.4s-0.5-0.6-1-0.7c-0.1,0-0.2-0.1-0.2-0.1
		c0-0.1-0.1-0.1-0.1-0.3c0-0.2,0.1-0.3,0.3-0.3c0.8-0.2,1.4-0.4,1.9-0.7c0.5-0.3,0.9-0.5,1.1-0.7c0.2-0.1,0.3-0.2,0.4-0.2
		c0.1,0,0.2,0,0.2,0.1c0,0.2,0,0.4-0.1,0.9c0,0.4-0.1,0.9-0.1,1.5s-0.1,1-0.1,1.5v6.6c0,0.3,0.1,0.6,0.3,0.7
		c0.2,0.2,0.5,0.3,0.9,0.4c0.2,0,0.3,0.1,0.4,0.1c0.1,0.1,0.2,0.2,0.2,0.3c0,0.2-0.2,0.3-0.6,0.3c-0.4,0-0.6,0-0.9,0
		c-0.2,0-0.4-0.1-0.6-0.1c-0.2,0-0.5,0-0.8,0c-0.3,0-0.6,0-0.8,0c-0.2,0-0.4,0-0.6,0.1S431.2,621.1,430.8,621.1z M433.1,606.4
		c-0.4,0-0.7-0.1-1-0.4c-0.3-0.3-0.4-0.6-0.4-1c0-0.4,0.1-0.8,0.4-1c0.3-0.3,0.6-0.4,1-0.4c0.4,0,0.8,0.1,1,0.4
		c0.3,0.3,0.4,0.6,0.4,1c0,0.4-0.1,0.7-0.4,1C433.9,606.3,433.5,606.4,433.1,606.4z"/>
	<path class="st0" d="M446.1,621.4c-1.1,0-2-0.2-2.9-0.7c-0.9-0.5-1.5-1.2-2-2c-0.5-0.9-0.8-1.8-0.8-2.9c0-0.8,0.2-1.6,0.5-2.3
		c0.3-0.8,0.8-1.4,1.3-2.1c0.6-0.6,1.2-1.1,2-1.5c0.8-0.4,1.6-0.6,2.4-0.6c1.1,0,2.1,0.3,3,0.8c0.9,0.5,1.6,1.2,2.1,2.1
		c0.5,0.9,0.8,1.8,0.8,2.8c0,1.1-0.2,2.1-0.7,3.1s-1.2,1.8-2.1,2.4C448.7,621.1,447.5,621.4,446.1,621.4z M446.7,620.6
		c0.6,0,1.2-0.1,1.7-0.4c0.5-0.2,0.9-0.6,1.2-1.2c0.2-0.4,0.4-1,0.5-1.6c0.1-0.6,0.1-1.2,0.1-1.8c0-0.9-0.2-1.8-0.5-2.6
		c-0.3-0.8-0.8-1.5-1.4-2.1c-0.6-0.5-1.3-0.8-2.1-0.8c-0.5,0-1,0.1-1.4,0.2c-0.4,0.2-0.8,0.5-1.1,0.9c-0.4,0.5-0.6,1-0.7,1.7
		c-0.1,0.7-0.2,1.4-0.2,2c0,0.9,0.2,1.8,0.5,2.7s0.8,1.5,1.4,2.1C445.3,620.3,446,620.6,446.7,620.6z"/>
</g>
<path class="st1" d="M420.8,563.5c0-0.1,0-0.3-0.1-0.4c-0.2-2.2,1.1-4,2.8-4.2c0.9-0.1,1.8,0.3,2.5,1"/>
<path class="st1" d="M429.3,559c0.2-1.2,0.9-2.2,1.9-2.4c0.7-0.1,1.3,0.1,1.9,0.6"/>
<path class="st1" d="M434.3,561.9c0.2,0.6,0.3,1.2,0.4,1.8c0.5,4-1.8,7.6-5.2,8.1c-2.7,0.4-5.2-1.3-6.5-4"/>
</svg>
