<?xml version="1.0" encoding="utf-8"?>
<!-- Generator: Adobe Illustrator 28.3.0, SVG Export Plug-In . SVG Version: 6.00 Build 0)  -->
<svg version="1.1" id="Calque_1" xmlns="http://www.w3.org/2000/svg" xmlns:xlink="http://www.w3.org/1999/xlink" x="0px" y="0px"
	 viewBox="0 0 518.8 518.6" style="enable-background:new 0 0 518.8 518.6;" xml:space="preserve">
<style type="text/css">
	.st0{fill:#FFFFFF;}
</style>
<path class="st0" d="M0.1,260.3c0-63.1,0.1-126.1-0.1-189.2C-0.1,35.8,25.6,7.2,56.8,0.8c2.7-0.6,5.5-0.7,8.3-0.7
	c128.1,0,256.2-0.2,384.2,0C481.9,0.2,510,24.2,517,55.7c1.2,5.4,1.8,11,1.8,16.5c0,124.2-0.2,248.4-0.4,372.5
	c-0.1,34-20.1,61.4-51.8,70.9c-6,1.8-12.6,2.9-18.9,2.9c-124.7,0.1-249.5,0-374.2-0.2c-28.7-0.1-51-12.5-65.4-37.7
	C2.8,471.4,0,461.3,0,450.3C0.2,387,0.1,323.6,0.1,260.3C0.1,260.3,0.1,260.3,0.1,260.3z M381.7,244.9c18.4,0,87,0.1,102.9,0
	c5.4,0,5.6-0.3,5.8-5.6c0-0.8,0-1.7,0-2.5c0-54.7,0.1-109.3,0-164c0-3.3-0.3-6.7-1-9.9c-4.9-21.1-22-34.5-44.3-34.6
	C390.8,28,336.4,28.1,282,28c-1.7,0-3.5-0.4-5,0.2c-1.2,0.5-2.4,1.9-2.9,3.1c-0.5,1.2-0.1,2.8-0.1,4.1c-0.3,41.3-1,187.4-0.9,203.3
	c0,5.5,0.2,5.5,5.7,5.7c1.7,0.1,3.4,0,5,0C316.4,244.5,381.7,244.7,381.7,244.9L381.7,244.9z M244.7,284.8c0-2.5-0.1-5,0-7.5
	c0.2-3.4-1.6-4.4-4.6-4.3c-1.1,0-2.2,0-3.4,0c-66.7-0.1-133.4-0.2-200-0.3c-2,0-4-0.2-5.8,0.2c-1,0.2-2.3,1.5-2.6,2.5
	c-0.5,1.5-0.2,3.3-0.2,5c0,55.5,0.1,110.9-0.2,166.4c-0.1,14.3,9.1,34.1,29.5,40.3c6.3,1.9,13.1,2.7,19.7,2.8
	c53.6,0.3,107.1,0.4,160.7,0.4c6.6,0,6.7-0.1,6.7-6.3C244.5,449.9,244.7,317.1,244.7,284.8L244.7,284.8z M245.6,32.1
	c0-2.7-1-4.2-3.9-4.1c-1.1,0-2.2,0-3.4,0c-55.5,0-111-0.1-166.4-0.1c-3.3,0-6.7,0.1-9.9,0.9c-19.8,4.7-33.5,21.9-33.6,42.4
	c-0.2,54.9-0.2,109.8-0.3,164.8c0,9.2-0.6,8.3,8.8,8.3c66.4,0.1,132.7,0.1,199.1,0.1c1.4,0,2.8-0.1,4.2,0c3,0.2,4.8-0.8,4.6-4.2
	c-0.1-1.7,0-3.3,0-5C244.7,202.4,245.5,38.2,245.6,32.1L245.6,32.1z M273,381.6c-0.1,0-0.2,65.8-0.2,98.7c0,2.2-0.3,4.5,0.2,6.7
	c0.3,1.3,1.7,2.6,3,3.2c1.1,0.5,2.7,0.2,4.1,0.2c55.2,0,110.5,0.1,165.7,0.1c20,0,36.9-12.6,42.2-31.8c1.5-5.5,2-11.5,2.1-17.3
	c0.2-41,0.2-149.2,0.3-162.3c0-3.5-1.1-5.3-4.8-5c-1.9,0.1-3.9,0-5.9,0c-41-0.1-178.2-0.7-201.6-1c-3.5,0-5.2,1.3-5.1,4.9
	c0,1.4,0,2.8,0,4.2C273,315.2,273,348.4,273,381.6L273,381.6z"/>
<path class="st0" d="M339,150.4c-9.6-0.1-15-6.3-14.3-15.5c0.5-6.6,5.5-11.6,12.4-12.6c1.6-0.2,3.3-0.1,5-0.1
	c26.5,0,52.9,0,79.4,0.1c3,0,6.1,0.4,8.9,1.4c6.1,2.1,9.5,8.2,8.7,14.4c-1,7.1-5.5,12-12.4,12.3C420.3,150.8,353.2,150.6,339,150.4
	L339,150.4z"/>
<path class="st0" d="M91.7,411.8c-0.2-3.7,1.1-7.1,4.2-10.1c5.8-5.6,11.3-11.5,17.1-17.1c2.6-2.5,2.6-4.3-0.1-6.8
	c-5.9-5.5-11.8-11.1-17.2-17.1c-7.4-8.2-4-20.2,6.4-23.5c5.7-1.8,10.4,0.1,14.4,4.2c5.3,5.3,10.6,10.7,16,16
	c3.8,3.7,4.1,3.7,8.1-0.2c5.6-5.5,10.9-11.2,16.6-16.5c6.3-5.7,13.6-5.4,19.4,0.2c5.8,5.6,6,13.8,0.2,20.2
	c-3.9,4.3-8.3,8.2-12.4,12.3c-1.6,1.6-3,3.3-4.7,4.7c-2.9,2.5-2.2,4.4,0.3,6.8c5.6,5.4,11.1,10.9,16.5,16.6
	c8.2,8.7,4.6,21.3-6.8,24.2c-5.4,1.4-9.8-0.8-13.5-4.5c-5.5-5.5-11.2-10.9-16.5-16.6c-2.6-2.8-4.4-2.4-6.7,0
	c-5.4,5.6-10.9,11.2-16.4,16.6c-4.5,4.4-9.6,6.5-15.9,3.8C94.6,422.7,91.7,418.4,91.7,411.8L91.7,411.8z"/>
<path class="st0" d="M105.5,122c2.8,0,5.6,0,8.4,0c9.1,0,8.4,0.6,8.4-8.8c0-6.7-0.2-13.4,0.1-20.1c0.4-8.2,5.9-13.9,13.4-14.4
	c8-0.5,14.2,4.5,14.8,12.6c0.4,5.8,0.1,11.7,0.1,17.6c0,3.1,0.1,6.1,0,9.2c-0.1,2.8,1.1,4.1,4,4c5.3-0.1,10.6,0,15.9,0
	c3.4,0,6.7-0.1,10,0.1c8.1,0.5,13.4,6.1,13.5,14.1c0.1,7.3-5.1,13.5-12.7,14c-7.2,0.5-14.5,0.1-21.7,0.1c-9.3,0.1-8.9-1.1-9,9.1
	c0,6.4,0.1,12.8-0.1,19.2c-0.2,9-6.2,15.2-14.4,15c-7.6-0.2-13.6-6.5-13.9-14.9c-0.2-6.4-0.1-12.8-0.1-19.2c0-10.2,0.8-9.1-8.8-9.2
	c-6.4-0.1-12.8,0.3-19.2-0.2c-3.2-0.2-6.6-1.2-9.3-2.9c-5.1-3.2-7-9.3-5.4-14.6c1.8-6.1,6.3-10.1,12.6-10.5
	C96.6,121.8,101.1,122,105.5,122L105.5,122L105.5,122z"/>
<path class="st0" d="M419.8,338.5c3,0,6.1,0.4,9,1.2c6.7,2,9.9,6.7,9.9,13.6c-0.1,7-3.2,11.4-10.3,13.1c-3.4,0.9-7.1,0.9-10.6,1
	c-10.5,0.1-70.6-0.4-77.8-0.2c-7.7,0.1-14.4-4.8-15.3-11.3c-1.2-9.1,2.9-15.4,11.9-17c3.8-0.7,7.8-0.3,11.6-0.3
	C359.2,338.5,407,338.4,419.8,338.5z"/>
<path class="st0" d="M341,424.9c-2.7,0-5.6-0.2-8.1-1.1c-6.7-2.6-9.4-7.9-8.3-15.3c1-6.7,6-11.4,12.9-11.8c4.2-0.2,8.3,0,12.5,0
	c23.6,0,47.3,0,70.9,0.1c1.4,0,2.8-0.1,4.2,0c8.6,0.6,13.6,6.2,13.5,14.9c-0.1,7.7-5.7,13.2-14.1,13.3
	C410.1,425.1,354.4,425,341,424.9L341,424.9z"/>
</svg>
