<?xml version="1.0" encoding="UTF-8"?>
<svg id="Calque_1" data-name="Calque 1" xmlns="http://www.w3.org/2000/svg" viewBox="0 0 518.79 518.63">
  <defs>
    <style>
      .cls-1 {
        fill: #748bf7;
        stroke-width: 0px;
      }
    </style>
  </defs>
  <path class="cls-1" d="M.06,260.3C.06,197.23.21,134.17,0,71.1-.11,35.77,25.56,7.18,56.75.82c2.7-.55,5.52-.74,8.28-.74,128.08-.04,256.17-.18,384.25.05,32.59.06,60.76,24.09,67.7,55.6,1.19,5.39,1.81,11.03,1.81,16.55-.05,124.18-.17,248.36-.4,372.53-.06,34.05-20.09,61.44-51.83,70.89-6.05,1.8-12.56,2.88-18.86,2.89-124.74.07-249.47.05-374.21-.25-28.71-.07-50.99-12.51-65.4-37.71C2.79,471.35-.03,461.29,0,450.33c.15-63.34.07-126.69.07-190.03h-.01ZM381.68,244.86c18.41,0,87.02.06,102.92-.02,5.43-.03,5.56-.31,5.79-5.64.04-.84,0-1.67,0-2.51.03-54.67.08-109.34.04-164.01,0-3.32-.26-6.72-1-9.94-4.89-21.11-22.02-34.54-44.29-34.59-54.39-.11-108.78-.09-163.17-.12-1.67,0-3.5-.36-4.97.2-1.21.45-2.35,1.87-2.87,3.13-.49,1.2-.15,2.75-.15,4.14-.27,41.27-.98,187.41-.9,203.3.03,5.5.19,5.51,5.67,5.71,1.67.06,3.35.03,5.02.03,32.63,0,97.9.2,97.9.3ZM244.71,284.78c0-2.51-.09-5.03.03-7.53.16-3.35-1.62-4.43-4.63-4.3-1.11.05-2.23.02-3.35.02-66.67-.11-133.35-.21-200.02-.31-1.95,0-3.97-.24-5.83.18-1.04.23-2.3,1.45-2.61,2.48-.47,1.54-.25,3.31-.25,4.98-.04,55.48.11,110.95-.22,166.43-.09,14.27,9.11,34.09,29.5,40.34,6.28,1.92,13.12,2.72,19.72,2.76,53.56.32,107.12.36,160.68.44,6.56,0,6.72-.11,6.73-6.33.06-34.03.26-166.8.26-199.16ZM245.58,32.13c.03-2.72-.99-4.23-3.88-4.12-1.11.04-2.23-.01-3.35-.01-55.48-.03-110.97-.08-166.45-.06-3.32,0-6.73.14-9.94.9-19.81,4.66-33.5,21.93-33.56,42.45-.17,54.93-.22,109.85-.31,164.78-.02,9.21-.56,8.27,8.81,8.28,66.36.07,132.72.1,199.07.15,1.39,0,2.79-.09,4.18.01,3.04.22,4.8-.81,4.56-4.19-.12-1.66,0-3.34,0-5.02,0-32.9.8-197.05.87-203.17ZM273,381.6c-.07,0-.22,65.81-.22,98.71,0,2.23-.32,4.54.18,6.66.3,1.27,1.7,2.61,2.95,3.21,1.14.55,2.73.16,4.13.16,55.23.03,110.46.1,165.68.06,20-.02,36.88-12.59,42.21-31.75,1.54-5.55,2.05-11.53,2.08-17.32.23-41,.2-149.23.31-162.34.03-3.47-1.08-5.28-4.77-5.05-1.94.12-3.9,0-5.86,0-41-.07-178.21-.71-201.63-1.01-3.53-.04-5.22,1.33-5.08,4.89.05,1.39,0,2.79,0,4.18,0,33.19,0,66.39,0,99.58Z"/>
  <path class="cls-1" d="M338.99,150.39c-9.59-.13-15.04-6.27-14.28-15.49.54-6.56,5.49-11.63,12.42-12.59,1.64-.23,3.34-.11,5.01-.11,26.46.02,52.92,0,79.38.13,2.99.01,6.14.39,8.94,1.36,6.09,2.12,9.54,8.21,8.7,14.42-.97,7.15-5.53,11.96-12.44,12.34-6.39.36-73.53.12-87.73-.07Z"/>
  <path class="cls-1" d="M91.71,411.81c-.2-3.74,1.09-7.14,4.16-10.09,5.81-5.6,11.28-11.54,17.08-17.15,2.64-2.55,2.55-4.28-.14-6.79-5.9-5.51-11.77-11.1-17.16-17.1-7.4-8.23-4.01-20.2,6.4-23.48,5.66-1.78,10.37.14,14.39,4.2,5.3,5.34,10.55,10.74,15.95,15.98,3.83,3.72,4.12,3.68,8.05-.18,5.57-5.46,10.86-11.23,16.62-16.48,6.26-5.71,13.63-5.44,19.44.17,5.78,5.57,6.01,13.78.18,20.22-3.91,4.32-8.29,8.23-12.45,12.33-1.59,1.56-3.04,3.28-4.74,4.71-2.94,2.47-2.18,4.43.26,6.79,5.61,5.42,11.15,10.91,16.5,16.59,8.18,8.69,4.61,21.29-6.77,24.25-5.45,1.42-9.78-.77-13.54-4.5-5.53-5.5-11.2-10.89-16.48-16.63-2.61-2.84-4.35-2.42-6.71.03-5.41,5.62-10.88,11.18-16.45,16.65-4.49,4.41-9.59,6.45-15.91,3.79-5.82-2.45-8.7-6.67-8.7-13.31Z"/>
  <path class="cls-1" d="M105.53,122.02c2.79,0,5.58,0,8.37,0,9.09.02,8.36.57,8.39-8.79.02-6.69-.2-13.39.09-20.07.36-8.19,5.93-13.94,13.44-14.43,8-.53,14.2,4.53,14.75,12.56.39,5.83.1,11.71.11,17.56,0,3.07.09,6.14.02,9.2-.07,2.79,1.12,4.07,3.96,4.03,5.3-.08,10.6-.01,15.89,0,3.35,0,6.7-.14,10.04.06,8.12.5,13.41,6.11,13.46,14.08.05,7.31-5.15,13.46-12.71,13.97-7.22.49-14.49.09-21.74.13-9.33.05-8.95-1.11-8.96,9.11,0,6.41.08,12.83-.06,19.24-.2,9.04-6.2,15.2-14.41,15-7.61-.18-13.59-6.48-13.86-14.93-.2-6.41-.05-12.83-.06-19.24-.01-10.21.8-9.11-8.75-9.19-6.41-.05-12.85.27-19.23-.19-3.17-.23-6.6-1.24-9.27-2.92-5.05-3.17-6.99-9.33-5.44-14.62,1.79-6.13,6.34-10.11,12.58-10.49,4.44-.27,8.92-.05,13.38-.05v-.03Z"/>
  <path class="cls-1" d="M419.76,338.48c3.01.03,6.12.35,8.99,1.19,6.69,1.96,9.93,6.67,9.88,13.59-.06,7-3.2,11.36-10.28,13.15-3.42.86-7.09.94-10.65.97-10.49.09-70.65-.35-77.81-.25-7.7.11-14.4-4.77-15.29-11.31-1.24-9.13,2.94-15.41,11.9-16.99,3.78-.67,7.75-.31,11.63-.32,11.11-.03,58.87-.16,71.63-.03Z"/>
  <path class="cls-1" d="M341.01,424.85c-2.73-.02-5.64-.19-8.14-1.14-6.71-2.56-9.39-7.89-8.27-15.3,1.02-6.74,5.96-11.39,12.87-11.77,4.16-.23,8.33-.03,12.5-.02,23.65.03,47.3.05,70.95.08,1.39,0,2.79-.09,4.18.01,8.61.63,13.61,6.16,13.51,14.89-.08,7.67-5.72,13.2-14.07,13.29-14.48.16-70.18.08-83.54-.03Z"/>
</svg>