<?xml version="1.0" encoding="UTF-8"?>
<svg id="Calque_1" data-name="Calque 1" xmlns="http://www.w3.org/2000/svg" viewBox="0 0 358.61 519.31">
  <defs>
    <style>
      .cls-1 {
        fill: #ffb86b;
        stroke-width: 0px;
      }
    </style>
  </defs>
  <path class="cls-1" d="M295.78,429.07c-.71-1.76-.19-3.77,1.27-4.89,18.5-14.23,61.55-54.74,61.55-123.37,0-59.28-31.77-108.25-94.41-145.55-.56-.34-1.14-.62-1.72-.91l17.62-25.19c8-11.43,8.41-25.91,2.35-37.49,3.02-2.19,5.77-4.86,8.02-8.09l3.31-4.73c1.61-2.31,2.87-4.75,3.84-7.27,1.04.25,2.09.41,3.14.41,4.3,0,8.53-2.03,11.18-5.82,4.32-6.17,2.81-14.67-3.35-18.98L244.66,2.46c-6.17-4.32-14.67-2.81-18.98,3.35-3.73,5.34-3.1,12.4,1.13,17.01-1.83,1.67-3.52,3.55-5,5.66l-3.31,4.73c-2.06,2.95-3.59,6.11-4.62,9.38-13.56-2.6-28.03,2.7-36.44,14.73l-87.87,125.59c-5.53,7.9-7.66,17.49-5.98,27,.76,4.31,2.3,8.36,4.46,12.02-2.34,1.89-4.46,4.11-6.27,6.7l-4.88,6.97c-10.45,14.93-6.8,35.58,8.13,46.04l17.81,12.46c5.62,3.93,12.16,5.98,18.88,5.98,1.93,0,3.88-.17,5.82-.51,8.7-1.54,16.27-6.37,21.33-13.6l4.89-6.98c2.01-2.87,3.48-5.95,4.47-9.13,1.45.18,2.9.29,4.35.29,11.41,0,22.64-5.37,29.65-15.4l16.88-24.13c1.88,1.76,3.95,3.33,6.24,4.61,42.16,23.42,51.01,53.39,51.01,74.4,0,18.31-8.35,52.1-64.29,72.71-12.27,4.53-20.52,16.4-20.52,29.53v18.67c0,2.35-1.91,4.25-4.25,4.25h-76.44v-32.23h38.17c15.09,0,28.39-10.7,31.62-25.44l4.22-19.24c2.11-9.63-.23-19.55-6.4-27.22-6.17-7.67-15.36-12.07-25.22-12.07H32.38c-9.85,0-19.04,4.4-25.22,12.08-6.17,7.68-8.51,17.6-6.4,27.22l4.21,19.24c3.23,14.75,16.53,25.45,31.62,25.45h37.01v32.23h-12.2c-13.41,0-25.38,8.52-29.77,21.2l-7.45,21.53c-3.33,9.61-1.79,20.29,4.11,28.58,5.9,8.28,15.49,13.23,25.66,13.23h231.51c10.48,0,20.24-5.19,26.11-13.87,5.87-8.69,7.03-19.68,3.12-29.4l-18.91-46.97ZM31.59,371.28l-4.21-19.24c-.46-2.08.44-3.59,1.01-4.3.57-.72,1.85-1.91,3.99-1.91h110.87c2.13,0,3.41,1.19,3.98,1.91.58.72,1.47,2.22,1.01,4.3l-4.22,19.24c-.51,2.33-2.61,4.02-5,4.02H36.59c-2.39,0-4.48-1.69-5-4.02ZM240.84,48.84l3.31-4.73c1.39-1.99,3.62-3.05,5.89-3.05,1.42,0,2.85.42,4.1,1.29l15.56,10.88c3.24,2.27,4.03,6.75,1.77,9.99l-3.31,4.73c-2.27,3.24-6.75,4.02-9.98,1.77l-15.58-10.9c-3.23-2.27-4.02-6.74-1.75-9.98ZM131.43,263.36l-4.89,6.98c-1.19,1.71-2.85,2.23-3.74,2.39-.88.15-2.62.24-4.33-.96l-17.8-12.46c-2.62-1.83-3.26-5.46-1.43-8.08l4.88-6.97c1.2-1.71,2.86-2.23,3.75-2.39.88-.15,2.63-.23,4.33.96l9.77,6.84,8.04,5.62c2.62,1.83,3.25,5.45,1.42,8.07ZM169.9,239.11c-2.8,4-8.34,4.99-12.36,2.18l-11.92-8.34s0,0,0,0l-17.8-12.46h0s-13.74-9.61-13.74-9.61c-1.94-1.35-3.23-3.39-3.65-5.72s.11-4.68,1.47-6.63l87.87-125.59c2.81-4.01,8.35-4.98,12.35-2.19l14.84,10.39s0,0,.01,0l10.11,7.07,18.5,12.94c4.01,2.8,4.99,8.35,2.19,12.35l-34.91,49.91c-.26.35-.54.68-.79,1.04l-3.25,4.73-48.91,69.91ZM270.49,439.25l18.91,46.97c.73,1.82.05,3.27-.42,3.97-.47.7-1.55,1.87-3.52,1.87H53.96c-1.91,0-2.99-1.12-3.46-1.78-.47-.67-1.18-2.06-.55-3.86l7.45-21.52c.59-1.71,2.21-2.86,4.02-2.86h115.89c17.37,0,31.5-14.13,31.5-31.51v-18.67c0-1.77,1.08-3.36,2.69-3.96,24.69-9.1,82.12-36.89,82.12-98.28,0-54.04-40.74-84.74-65.03-98.23-1.45-.81-1.94-2.08-2.1-2.76-.19-.83-.24-2.08.64-3.36l14.07-20.5,3.55-5.07c1.31-1.65,3.66-2.13,5.51-1.02,53.82,32.05,81.11,73.14,81.11,122.14,0,54.49-31.9,87.15-50.91,101.77-11.11,8.54-15.2,23.62-9.95,36.68Z"/>
</svg>