<?xml version="1.0" encoding="UTF-8"?>
<svg id="Calque_1" data-name="Calque 1" xmlns="http://www.w3.org/2000/svg" viewBox="0 0 418.83 519.31">
  <defs>
    <style>
      .cls-1 {
        fill: #f9de6f;
        stroke-width: 0px;
      }
    </style>
  </defs>
  <path class="cls-1" d="M186,418.67c-49.48,0-95.99-19.12-130.96-53.84C20.16,330.19.62,283.9.01,234.48c-.61-49.52,18.48-96.51,53.73-132.33,35-35.55,81.5-55.23,130.94-55.4h.66c49.89,0,96.73,19.17,131.89,53.99,35.18,34.83,54.64,81.33,54.8,130.93.16,50.01-18.92,96.92-53.74,132.09-34.82,35.17-81.49,54.67-131.41,54.9h-.88ZM147.63,384.38c12.08,3.16,24.73,4.95,37.74,5.2,3.71-.52,7.43-.98,11.16-1.45,8.7-1.09,16.92-2.12,25.08-3.8,20.77-4.29,40.18-13.48,59.35-28.11.33-.25.68-.52,1.04-.79-.22-.32-.45-.65-.67-.96-6.79-9.75-10.19-20.76-10.14-32.77.06-14.71,4.19-28.82,12.27-41.92,2.07-3.36,4.59-7.77,5.68-12.08.89-3.53,1.43-8.58-1.09-12.54-2.63-4.13-7.73-5.87-11.55-6.61-.52-.1-1.05-.18-1.58-.26-1.14-.17-2.43-.37-3.81-.72-13.75-3.53-24.9-12.49-30.59-24.6-5.66-12.04-5.46-26.25.54-38.99,8.6-18.23,24.34-29.29,46.79-32.86,8.84-1.41,17.74-1.61,26.35-1.81,1.02-.03,2.03-.05,3.05-.07-.71-1.08-1.44-2.17-2.19-3.28-1.54-2.3-3.13-4.68-4.66-7.12-2.71-4.33-5.8-6.16-10.67-6.32-4.16-.13-8.28-.48-12.27-.81-4.32-.36-8.39-.69-12.47-.79h-.58c-5.84,0-10.8,2-15.63,6.32-6.73,6.03-14.83,12.94-23.97,18.53-5.61,3.43-11.42,5.17-17.25,5.17-9.39,0-18.07-4.46-25.09-12.89-7.39-8.88-9.99-20-7.34-31.32,1.94-8.3,4.79-16.12,8.45-23.25,2.85-5.55,6.36-10.58,9.75-15.44.04-.06.08-.11.12-.17-6.18-.67-12.2-1-17.95-1-8.38,0-16.58.71-24.43,2.12,6.46,11.07,13.64,25.28,17.11,41.64,6.66,31.4-5.99,55.3-35.64,67.31-1.08.44-2.17.86-3.25,1.27-2.8,1.07-5.44,2.09-7.68,3.36-2.61,1.48-3.34,2.72-3.39,2.97.04.23.73,1.66,3.51,3.48.89.58,1.35.58,1.58.58.8,0,1.99-.4,3.53-1.2,1.59-.82,3.16-1.66,4.73-2.51,4.7-2.52,9.55-5.13,14.83-7.12,4.65-1.76,9.3-2.65,13.83-2.65,11.18,0,21.44,5.18,31.36,15.82,10.77,11.55,12.31,25.42,4.57,41.23-2.03,4.14-4.28,8.1-6.47,11.94-1.42,2.5-2.85,5-4.2,7.54-3.58,6.73-4.11,12.73-1.7,19.46,1.99,5.57,4.23,14.03,3.57,22.75-2.1,27.96-13.24,51.31-33.11,69.4-4.44,4.04-10.2,7.52-16.64,10.09ZM30.83,219.36c-1.05,11.52-.68,23.3,1.13,35.7,7.03,48.16,35.14,88.37,74.39,111.95-.23-.83-.43-1.67-.6-2.53-1.26-6.47-.95-12.84-.65-19l.12-2.64c.19-4.52.69-8.95,1.16-13.25.26-2.33.52-4.65.73-6.98.65-7.22-1.86-12.54-7.88-16.74-1.38-.97-2.78-1.93-4.17-2.89-3.24-2.24-6.6-4.55-9.87-6.96-9.84-7.23-15.44-17.09-16.21-28.51-.26-3.86.13-7.46.51-10.94.22-2.02.43-3.93.49-5.74.41-12.55-2.47-16.58-14-19.58-10.23-2.66-18.44-6.52-25.15-11.89ZM134.55,353.39c-.02.82-.03,1.48,0,1.91.07.82.18,1.43.29,1.87.36-.11.83-.27,1.42-.52,3.68-1.59,7.44-4.21,10.31-7.2,10.73-11.19,17.33-24.53,19.6-39.65,1.05-6.98.83-12.71-.62-16.6-5.99-15.99-4.27-31.92,5.24-48.7.84-1.49,1.7-2.97,2.56-4.45,2.31-3.99,4.5-7.76,6.4-11.66,1.24-2.54,1.36-4.34-1.45-7.12-4.21-4.16-6.75-4.69-8.48-4.69-1.84,0-4.07.64-6.8,1.95-2.1,1.01-4.18,2.12-6.39,3.3-4.77,2.54-9.7,5.17-15.18,6.95-2.85.92-5.81,1.39-8.82,1.39-12.89,0-25.28-8.52-31.58-21.71-7.16-14.99-2.81-30.14,11.36-39.54,5.63-3.73,11.73-6.23,17.62-8.65l.73-.3c16.02-6.57,21.21-16.12,17.9-32.96-2.72-13.86-9.61-25.82-18.35-39.9-41.86,17.05-71.68,46.51-88.63,87.57-.73,1.78-.92,4.58-.44,6.51,2.73,10.82,8.56,17.01,18.34,19.47l.73.18c3.15.79,6.41,1.61,9.7,2.84,16.6,6.21,26.55,17.75,28.79,33.37,1.07,7.42,1.25,15.35.55,23.56-.57,6.63,1.49,9.47,4.74,11.7l3.14,2.16c2.49,1.72,4.98,3.43,7.49,5.12,17.48,11.74,25,28.44,22.37,49.63-.67,5.42-1.26,10.89-1.82,16.19-.24,2.21-.47,4.4-.7,6.54,0,.51-.01.98-.02,1.43ZM313.21,178.96c-10.26,0-19.3,1.27-27.65,3.89-8.43,2.65-14.05,7.35-17.18,14.39-3.63,8.15-1.24,15.47,6.25,19.11,2.45,1.19,5.66,1.84,9.05,2.52l1.45.29c17.92,3.69,29.1,14.37,33.23,31.75,3.43,14.41,1.17,28.32-6.71,41.33-2.93,4.84-5.5,9.21-7.2,13.67-3.98,10.42-4.08,19.49-.28,27.72.05.12.11.23.16.34.04-.04.07-.08.11-.13,24.22-28.47,36.83-62.45,37.5-100.98.13-16.07-2.6-32.54-8.35-50.29-.16-.51-.56-1.73-.87-2.36-.03,0-.06,0-.1-.01-7.26-.84-13.61-1.24-19.41-1.24ZM235.87,85.05c-7.08,8.55-14.89,18.93-19.35,31.15-1.22,3.35-1.8,6.68-1.63,9.37.06,1.02.47,4.35,2.96,4.35.61,0,1.63-.18,2.99-1.06,5.71-3.69,10.79-7.7,15.11-11.94,9.47-9.28,20.56-14.64,33.03-16-10.07-6.35-21.11-11.66-32.99-15.84-.04-.01-.07-.03-.11-.04Z"/>
  <path class="cls-1" d="M363.98,82.84C320.85,31.7,257.87,1.55,191.19.12c-.34,0-.71-.04-1.08-.07-.84-.07-24.95-1.31-25.15,15.17-.2,16.57,21.32,15.33,24.06,15.33.49,0,2.77-.03,2.78-.03,15.77.11,32.27,2.56,49.03,7.3,42.95,12.15,81.31,38.64,108,74.59,27.44,36.96,41.05,80.68,39.38,126.43-2.3,62.72-28.68,114.49-78.39,153.87-33.99,26.92-74.32,41.26-119.86,42.61-1.45.04-2.78.15-4.04.3-1.25-.15-2.56-.26-3.99-.3-28.02-.83-54.05-6.6-77.86-17.17h-.03s-.04-.02-.09-.05c-2.34-1.04-4.65-2.13-6.94-3.26-6.4-2.26-15.61-3.46-20.67,5.29-7.27,12.56,5.55,20.71,8.84,22.54,20.26,9.74,42.19,16.72,65.33,20.4,6.73,1.07,13.51,1.59,20.1,2.05,0,3.49,0,6.96.01,10.36.01,3.87.02,7.74.01,11.61,0,.45,0,.91,0,1.37h30.61c.18-7.15.19-14.83.01-23.34,6.6-.45,13.38-.97,20.12-2.05,101.5-16.15,179.84-95.09,194.94-196.43,9.8-65.76-9.28-132.75-52.33-183.8Z"/>
  <rect class="cls-1" x="59.01" y="486.89" width="255.85" height="32.42" rx="16.21" ry="16.21"/>
</svg>