<?xml version="1.0" encoding="UTF-8"?>
<svg id="Calque_1" data-name="Calque 1" xmlns="http://www.w3.org/2000/svg" viewBox="0 0 536.78 519.27">
  <defs>
    <style>
      .cls-1 {
        fill: #e190c9;
        stroke-width: 0px;
      }
    </style>
  </defs>
  <path class="cls-1" d="M315.3,320.62h0c-8.8,0-15.93,7.13-15.93,15.93v43.57c0,8.8-7.13,15.93-15.93,15.93h-79.09s-30.77.36-47.75,18.05l-10.97,11.43h0l-.52.54-4.11,4.28h0l-32.26,33.61v-18.51c0-27.28-22.12-49.4-49.4-49.4h-11.58c-8.8,0-15.93-7.13-15.93-15.93v-209.93c0-8.8,7.13-15.93,15.93-15.93h89.5c8.8,0,15.93-7.13,15.93-15.93s-7.13-15.93-15.93-15.93H49.74c-27.47,0-49.74,22.27-49.74,49.74v209.79c0,25.38,20.58,45.96,45.96,45.96h15.02c8.8,0,15.93,7.13,15.93,15.93v59.5c0,17.2,15.93,15.93,15.93,15.93.66,0,1.3-.05,1.94-.13,3.59-.38,7.08-1.97,9.77-4.78l55.69-58.01h0l19.36-20.17s8.42-8.26,24.77-8.26h23.73s60.94,0,60.94,0c23.3,0,42.19-18.89,42.19-42.19v-49.16c0-8.8-7.13-15.93-15.93-15.93Z"/>
  <path class="cls-1" d="M487.05,0H219.84c-27.44,0-49.68,22.24-49.68,49.68v213.61c0,23.3,18.89,42.19,42.19,42.19h96.34s23.73,0,23.73,0c16.34,0,24.77,8.26,24.77,8.26l10.97,11.43s0,0,0,0l64.08,66.75c2.7,2.81,6.18,4.4,9.77,4.78.64.08,1.28.13,1.94.13,0,0,15.93,1.27,15.93-15.93v-59.5c0-8.8,7.13-15.93,15.93-15.93h15.02c25.38,0,45.96-20.58,45.96-45.96V49.74c0-27.47-22.27-49.74-49.74-49.74ZM504.93,257.71c0,8.8-7.13,15.93-15.93,15.93h-11.58c-27.28,0-49.4,22.12-49.4,49.4v18.51l-32.26-33.61h0l-3.85-4.01-.78-.81h0l-10.97-11.43c-16.98-17.69-47.75-18.05-47.75-18.05h-16.59s0,0,0,0h-97.89c-8.8,0-15.93-7.13-15.93-15.93V47.11c0-8.43,6.83-15.26,15.26-15.26h271.74c8.8,0,15.93,7.13,15.93,15.93v209.93Z"/>
</svg>