<?xml version="1.0" encoding="utf-8"?>
<!-- Generator: Adobe Illustrator 28.3.0, SVG Export Plug-In . SVG Version: 6.00 Build 0)  -->
<svg version="1.1" id="Calque_1" xmlns="http://www.w3.org/2000/svg" xmlns:xlink="http://www.w3.org/1999/xlink" x="0px" y="0px"
	 viewBox="0 0 536.8 519.3" style="enable-background:new 0 0 536.8 519.3;" xml:space="preserve">
<style type="text/css">
	.st0{fill:#FFFFFF;}
</style>
<path class="st0" d="M315.3,320.6L315.3,320.6c-8.8,0-15.9,7.1-15.9,15.9v43.6c0,8.8-7.1,15.9-15.9,15.9h-79.1c0,0-30.8,0.4-47.8,18
	l-11,11.4l0,0l-0.5,0.5l-4.1,4.3l0,0L108.7,464v-18.5c0-27.3-22.1-49.4-49.4-49.4H47.8c-8.8,0-15.9-7.1-15.9-15.9V170.2
	c0-8.8,7.1-15.9,15.9-15.9h89.5c8.8,0,15.9-7.1,15.9-15.9s-7.1-15.9-15.9-15.9H49.7C22.3,122.4,0,144.7,0,172.1v209.8
	c0,25.4,20.6,46,46,46h15c8.8,0,15.9,7.1,15.9,15.9v59.5c0,17.2,15.9,15.9,15.9,15.9c0.7,0,1.3,0,1.9-0.1c3.6-0.4,7.1-2,9.8-4.8
	l55.7-58l0,0l19.4-20.2c0,0,8.4-8.3,24.8-8.3h23.7H289c23.3,0,42.2-18.9,42.2-42.2v-49.2C331.2,327.7,324.1,320.6,315.3,320.6
	L315.3,320.6z"/>
<path class="st0" d="M487,0H219.8c-27.4,0-49.7,22.2-49.7,49.7v213.6c0,23.3,18.9,42.2,42.2,42.2h96.3h23.7
	c16.3,0,24.8,8.3,24.8,8.3l11,11.4l0,0l64.1,66.8c2.7,2.8,6.2,4.4,9.8,4.8c0.6,0.1,1.3,0.1,1.9,0.1c0,0,15.9,1.3,15.9-15.9v-59.5
	c0-8.8,7.1-15.9,15.9-15.9h15c25.4,0,46-20.6,46-46V49.7C536.8,22.3,514.5,0,487,0z M504.9,257.7c0,8.8-7.1,15.9-15.9,15.9h-11.6
	c-27.3,0-49.4,22.1-49.4,49.4v18.5l-32.3-33.6l0,0l-3.9-4l-0.8-0.8l0,0l-11-11.4c-17-17.7-47.8-18-47.8-18h-16.6l0,0h-97.9
	c-8.8,0-15.9-7.1-15.9-15.9V47.1c0-8.4,6.8-15.3,15.3-15.3H489c8.8,0,15.9,7.1,15.9,15.9V257.7z"/>
</svg>
