<?xml version="1.0" encoding="utf-8"?>
<!-- Generator: Adobe Illustrator 28.3.0, SVG Export Plug-In . SVG Version: 6.00 Build 0)  -->
<svg version="1.1" id="Calque_1" xmlns="http://www.w3.org/2000/svg" xmlns:xlink="http://www.w3.org/1999/xlink" x="0px" y="0px"
	 viewBox="0 0 358.6 519.3" style="enable-background:new 0 0 358.6 519.3;" xml:space="preserve">
<style type="text/css">
	.st0{fill:#FFFFFF;}
</style>
<path class="st0" d="M295.8,429.1c-0.7-1.8-0.2-3.8,1.3-4.9c18.5-14.2,61.5-54.7,61.5-123.4c0-59.3-31.8-108.3-94.4-145.6
	c-0.6-0.3-1.1-0.6-1.7-0.9l17.6-25.2c8-11.4,8.4-25.9,2.4-37.5c3-2.2,5.8-4.9,8-8.1l3.3-4.7c1.6-2.3,2.9-4.8,3.8-7.3
	c1,0.2,2.1,0.4,3.1,0.4c4.3,0,8.5-2,11.2-5.8c4.3-6.2,2.8-14.7-3.4-19L244.7,2.5c-6.2-4.3-14.7-2.8-19,3.3c-3.7,5.3-3.1,12.4,1.1,17
	c-1.8,1.7-3.5,3.5-5,5.7l-3.3,4.7c-2.1,3-3.6,6.1-4.6,9.4c-13.6-2.6-28,2.7-36.4,14.7L89.6,182.9c-5.5,7.9-7.7,17.5-6,27
	c0.8,4.3,2.3,8.4,4.5,12c-2.3,1.9-4.5,4.1-6.3,6.7l-4.9,7c-10.4,14.9-6.8,35.6,8.1,46l17.8,12.5c5.6,3.9,12.2,6,18.9,6
	c1.9,0,3.9-0.2,5.8-0.5c8.7-1.5,16.3-6.4,21.3-13.6l4.9-7c2-2.9,3.5-6,4.5-9.1c1.4,0.2,2.9,0.3,4.4,0.3c11.4,0,22.6-5.4,29.6-15.4
	l16.9-24.1c1.9,1.8,3.9,3.3,6.2,4.6c42.2,23.4,51,53.4,51,74.4c0,18.3-8.4,52.1-64.3,72.7c-12.3,4.5-20.5,16.4-20.5,29.5v18.7
	c0,2.4-1.9,4.2-4.2,4.2h-76.4v-32.2H139c15.1,0,28.4-10.7,31.6-25.4l4.2-19.2c2.1-9.6-0.2-19.5-6.4-27.2s-15.4-12.1-25.2-12.1H32.4
	c-9.9,0-19,4.4-25.2,12.1c-6.2,7.7-8.5,17.6-6.4,27.2L5,377.1c3.2,14.8,16.5,25.5,31.6,25.5h37v32.2H61.4
	c-13.4,0-25.4,8.5-29.8,21.2l-7.5,21.5c-3.3,9.6-1.8,20.3,4.1,28.6c5.9,8.3,15.5,13.2,25.7,13.2h231.5c10.5,0,20.2-5.2,26.1-13.9
	c5.9-8.7,7-19.7,3.1-29.4L295.8,429.1L295.8,429.1z M31.6,371.3L27.4,352c-0.5-2.1,0.4-3.6,1-4.3c0.6-0.7,1.9-1.9,4-1.9h110.9
	c2.1,0,3.4,1.2,4,1.9c0.6,0.7,1.5,2.2,1,4.3l-4.2,19.2c-0.5,2.3-2.6,4-5,4H36.6C34.2,375.3,32.1,373.6,31.6,371.3z M240.8,48.8
	l3.3-4.7c1.4-2,3.6-3,5.9-3c1.4,0,2.9,0.4,4.1,1.3l15.6,10.9c3.2,2.3,4,6.8,1.8,10l-3.3,4.7c-2.3,3.2-6.8,4-10,1.8l-15.6-10.9
	C239.4,56.5,238.6,52.1,240.8,48.8L240.8,48.8z M131.4,263.4l-4.9,7c-1.2,1.7-2.8,2.2-3.7,2.4c-0.9,0.1-2.6,0.2-4.3-1l-17.8-12.5
	c-2.6-1.8-3.3-5.5-1.4-8.1l4.9-7c1.2-1.7,2.9-2.2,3.8-2.4c0.9-0.1,2.6-0.2,4.3,1l9.8,6.8l8,5.6C132.6,257.1,133.3,260.7,131.4,263.4
	L131.4,263.4z M169.9,239.1c-2.8,4-8.3,5-12.4,2.2l-11.9-8.3l0,0l-17.8-12.5l0,0l-13.7-9.6c-1.9-1.4-3.2-3.4-3.7-5.7
	s0.1-4.7,1.5-6.6l87.9-125.6c2.8-4,8.4-5,12.4-2.2L227,81.1c0,0,0,0,0,0l10.1,7.1l18.5,12.9c4,2.8,5,8.3,2.2,12.3l-34.9,49.9
	c-0.3,0.4-0.5,0.7-0.8,1l-3.2,4.7L169.9,239.1L169.9,239.1z M270.5,439.2l18.9,47c0.7,1.8,0,3.3-0.4,4s-1.5,1.9-3.5,1.9H54
	c-1.9,0-3-1.1-3.5-1.8c-0.5-0.7-1.2-2.1-0.5-3.9l7.5-21.5c0.6-1.7,2.2-2.9,4-2.9h115.9c17.4,0,31.5-14.1,31.5-31.5v-18.7
	c0-1.8,1.1-3.4,2.7-4c24.7-9.1,82.1-36.9,82.1-98.3c0-54-40.7-84.7-65-98.2c-1.4-0.8-1.9-2.1-2.1-2.8c-0.2-0.8-0.2-2.1,0.6-3.4
	l14.1-20.5l3.6-5.1c1.3-1.6,3.7-2.1,5.5-1c53.8,32.1,81.1,73.1,81.1,122.1c0,54.5-31.9,87.1-50.9,101.8
	C269.4,411.1,265.3,426.2,270.5,439.2L270.5,439.2z"/>
</svg>
