<?xml version="1.0" encoding="UTF-8"?>
<svg id="Calque_1" data-name="Calque 1" xmlns="http://www.w3.org/2000/svg" viewBox="0 0 518.91 519.31">
  <defs>
    <style>
      .cls-1 {
        fill: #6bd6a6;
        stroke-width: 0px;
      }
    </style>
  </defs>
  <path class="cls-1" d="M.03,259.82C.03,209.78.08,159.74,0,109.7c-.02-14.4,4.55-26.71,15.35-36.45,8.51-7.67,18.57-11.49,30.01-11.68,4.27-.07,8.54-.08,12.81,0,2.08.04,2.95-.76,2.93-2.85-.05-4.27-.03-8.54.03-12.81.36-23.69,17.87-43.53,41.34-44.91,20.66-1.21,41.52-2.14,62.01,2.29,44.68,9.65,76.8,35.5,97.09,76.27,3.1,6.23,2.96,6.24,8.37,1.49,14.47-12.73,31.3-19.47,50.63-19.49,50.45-.05,100.9.12,151.35-.08,23.63-.09,41.3,16.14,45.61,35.08.85,3.74,1.32,7.64,1.32,11.47.07,101.3.1,202.61.02,303.91-.02,22.02-14.09,40.02-34.98,45-4.49,1.07-9.27,1.3-13.91,1.31-48.01.09-96.02,0-144.02.12-5.65.01-11.47.28-16.92,1.62-18.89,4.62-32.26,20.71-33.95,40.06-.18,2.03-.22,4.07-.51,6.08-1.14,7.78-7.43,13.22-15.14,13.17-7.73-.04-13.9-5.46-15.04-13.3-.32-2.21-.43-4.45-.65-6.68-2.1-21.68-19.4-38.82-41.13-40.67-3.03-.26-6.09-.33-9.14-.33-48.21-.02-96.42-.08-144.63.03-11.58.03-22.18-2.54-31.3-9.9C5.66,438.88.04,426.34.04,411.17c.01-32.75,0-65.5,0-98.25,0-17.7,0-35.4,0-53.09ZM274.76,286.38h-.04c0,50.66,0,101.31.03,151.97,0,1.32.48,2.63.73,3.94,1.04-.54,2.14-.99,3.11-1.63,13.83-9.14,29.01-13.08,45.59-13.01,48.01.21,96.02.08,144.03.05,2.63,0,5.32.01,7.89-.48,6.18-1.18,10.12-5.07,11.62-11.12.62-2.52.58-5.25.58-7.88.03-98.67.02-197.33.01-296,0-2.03.02-4.08-.19-6.09-.82-7.82-5.97-12.98-13.83-13.83-2.21-.24-4.47-.17-6.7-.18-45.77-.01-91.55-.03-137.32,0-4.47,0-8.96-.02-13.41.34-15.49,1.24-27.18,8.8-35.44,21.83-5.44,8.58-6.71,18.12-6.69,28.06.08,48.01.03,96.02.03,144.03ZM91.68,198.59c0,49.84-.01,99.69.01,149.53,0,13.08,5.47,18.5,18.57,18.56,9.15.04,18.31-.1,27.46.03,40.13.58,73.84,15.68,101.29,44.92,1.44,1.53,3.12,2.84,4.69,4.25.16-2.2.47-4.4.47-6.6.02-89.31.06-178.62-.08-267.93-.01-7.89-.61-15.89-1.98-23.66-7.1-40.48-40.14-74.67-80.19-83.71-18.71-4.22-37.65-2.88-56.52-2.55-7.45.13-12.6,5.86-13.48,13.37-.28,2.41-.23,4.87-.23,7.31-.01,48.83,0,97.65,0,146.48ZM30.63,259.54c0,48.61,0,97.22,0,145.83,0,2.03-.05,4.07.03,6.1.39,10.12,5.98,15.8,16,16.22,2.44.1,4.88.04,7.32.04,46.37,0,92.74-.04,139.12.04,5.47,0,10.95.61,16.42.94.77.05,1.55.06,2.32.09-.48-.79-.81-1.75-1.46-2.36-18.06-16.7-39.21-26.84-63.84-28.55-12.96-.9-26.02-.51-39.03-.59-10.29-.06-19.68-2.86-27.9-9.1-12.94-9.82-18.58-23.07-18.56-39.18.08-80.95.05-161.89,0-242.84,0-4.58-.55-9.17-.84-13.75-4.66-.09-9.34-.41-13.99-.22-9.4.39-14.98,6.04-15.52,15.41-.13,2.23-.06,4.47-.06,6.71,0,48.41,0,96.81,0,145.22Z"/>
  <path class="cls-1" d="M381.53,336.18c19.1,0,38.2,0,57.29.01,2.03,0,4.09-.07,6.08.22,7.66,1.14,13.02,7.59,12.91,15.34-.11,7.43-5.45,13.63-12.85,14.79-1.59.25-3.24.21-4.86.22-38.8,0-77.61.01-116.41-.01-2.02,0-4.08-.03-6.07-.38-7.36-1.29-12.46-7.64-12.34-15.16.13-7.48,5.48-13.68,12.88-14.71,2.4-.33,4.86-.31,7.3-.31,18.69-.02,37.38-.01,56.07,0Z"/>
  <path class="cls-1" d="M381.52,275.14c18.89,0,37.79,0,56.68.01,2.23,0,4.49-.02,6.68.3,7.43,1.09,12.84,7.31,12.95,14.66.11,7.73-5.23,14.15-12.9,15.36-1.79.28-3.64.25-5.47.25-38.2.02-76.39.02-114.59.01-1.83,0-3.66,0-5.48-.16-8.25-.78-13.96-6.8-14.11-14.81-.15-8.25,5.6-14.62,14.07-15.47,2.01-.2,4.06-.15,6.09-.15,18.69-.01,37.38,0,56.07,0Z"/>
  <path class="cls-1" d="M380.88,183.66c-18.69,0-37.38.01-56.07-.01-2.23,0-4.49.03-6.68-.29-7.46-1.07-12.69-7.18-12.8-14.74-.11-7.82,5.19-14.14,12.92-15.25,1.8-.26,3.64-.27,5.47-.27,37.79-.01,75.57,0,113.36,0,2.44,0,4.89-.1,7.31.16,7.6.82,13.31,7.22,13.46,14.88.15,7.59-5.4,14.2-12.98,15.31-1.8.26-3.65.2-5.47.2-19.5.01-39.01,0-58.51,0Z"/>
  <path class="cls-1" d="M381.58,244.71c-18.89,0-37.79,0-56.68-.01-2.23,0-4.49,0-6.68-.31-7.75-1.13-13.1-7.52-12.93-15.23.18-7.84,5.62-13.87,13.44-14.79,1.61-.19,3.24-.2,4.87-.2,38.4,0,76.79.02,115.19.04,2.03,0,4.08-.06,6.08.22,7.43,1.04,12.75,7.13,12.95,14.65.2,7.44-4.91,13.89-12.28,15.2-2.38.42-4.85.42-7.28.43-18.89.03-37.79.02-56.68.02Z"/>
  <path class="cls-1" d="M457.74,469.16c0,2.63.05,5.36-.58,7.88-1.49,6.05-5.44,9.94-11.62,11.12-2.57.49-5.26.48-7.89.48-46.91.03-121.07.14-167.99-.05-.13,10.25-.57,20.5-1.38,30.72,47.96-.12,123.17-.03,171.13-.12,4.65,0,9.42-.24,13.91-1.31,20.89-4.98,34.96-22.98,34.98-45,.02-19.68-.01-2,0-21.68-10.2-.53-20.39-1.24-30.56-2.11,0,19.15,0,.92,0,20.07Z"/>
  <path class="cls-1" d="M61.18,469.16c0,2.63-.05,5.36.58,7.88,1.49,6.05,5.44,9.94,11.62,11.12,2.57.49,5.26.48,7.89.48,46.91.03,121.07.14,167.99-.05.13,10.25,24.64,20.5,25.45,30.72-47.96-.12-147.24-.03-195.2-.12-4.65,0-9.42-.24-13.91-1.31-20.89-4.98-34.96-22.98-34.98-45-.02-19.68.01-2,0-21.68,10.2-.53,20.39-1.24,30.56-2.11,0,19.15,0,.92,0,20.07Z"/>
</svg>