<?xml version="1.0" encoding="utf-8"?>
<!-- Generator: Adobe Illustrator 28.3.0, SVG Export Plug-In . SVG Version: 6.00 Build 0)  -->
<svg version="1.1" id="Calque_1" xmlns="http://www.w3.org/2000/svg" xmlns:xlink="http://www.w3.org/1999/xlink" x="0px" y="0px"
	 viewBox="0 0 595.3 841.9" style="enable-background:new 0 0 595.3 841.9;" xml:space="preserve">
<style type="text/css">
	.st0{fill:none;stroke:#071453;stroke-width:14.6046;stroke-linecap:round;stroke-miterlimit:10;}
	.st1{fill:#071453;}
</style>
<path class="st0" d="M271.7,342.9c-0.2-0.9-0.3-1.9-0.4-2.8c-1.5-15.7,7.8-29.4,20.6-30.6c6.8-0.6,13.2,2.4,18,7.6"/>
<path class="st0" d="M333.6,309.4c1.2-8.9,6.5-16,14-17.3c4.9-0.9,9.7,0.8,13.7,4.3"/>
<path class="st0" d="M370.6,331c1.5,4.1,2.5,8.4,3.1,13c3.9,29.3-13.3,55.8-38.2,59.1c-19.6,2.6-38.1-9.8-47.1-29.4"/>
<path class="st1" d="M301.8,576.1c-25.2,0-48.7-3.9-70.5-11.7c-21.8-7.8-41.4-18.3-58.6-31.5c-17.9-13.2-33.5-28.8-46.9-46.7
	c-13.4-17.9-23.9-38.7-31.5-62.6c-7.3-21.8-10.9-45.2-10.9-70c0-23.8,3.6-46.8,10.9-69c7.3-22.2,17.5-42.4,30.8-60.6
	c13.9-18.9,30-34.9,48.4-48.2c18.4-13.2,38-23.3,58.8-30.3c10.9-3.6,22.2-6.5,33.8-8.4c11.6-2,23.5-3,35.8-3
	c23.5,0,46.4,3.8,68.8,11.4c22.3,7.6,42.5,17.9,60.3,30.8c17.5,13.2,33.2,29.1,46.9,47.4c13.7,18.4,24.2,38.7,31.5,60.8
	c3.3,10.9,6,22.2,8,33.8c2,11.6,3,23.3,3,35.2c0,19.9-3.1,41.2-9.2,64.1c-6.1,22.8-17.1,45.4-33,67.5
	c-13.2,18.5-29.1,34.6-47.7,48.2c-18.5,13.6-38.4,24-59.6,31.3c-10.9,3.6-22.2,6.5-33.8,8.4C325.5,575.1,313.7,576.1,301.8,576.1z
	 M302.3,469.3c10.9,0,21.9-1.8,33-5.5c11.1-3.6,20.9-9.1,29.5-16.4c10.9-8.6,19.4-17.9,25.6-28.1c6.1-10.1,10.3-19.4,12.7-28.1
	c1.7-5.6,3-11.5,4-17.6c1-6.1,1.5-12.3,1.5-18.6c0-12.9-1.8-25.1-5.5-36.5c-3.7-11.4-8.6-21.9-14.9-31.5c-5.6-8-12.8-15.6-21.4-23.1
	c-8.6-7.5-19-13.3-31.3-17.6c-10.9-3.6-22-5.5-33.3-5.5c-23.8,0-44.9,7.1-63.1,21.4c-8.6,6.6-16.4,14.8-23.3,24.6
	c-7,9.8-12.1,20.3-15.4,31.5c-1.7,5.6-3,11.6-4,17.9c-1,6.3-1.5,12.6-1.5,18.9c0,10.3,1.5,21.2,4.5,32.8c3,11.6,8.4,23.2,16.4,34.8
	c6.3,9.3,13.7,17.4,22.3,24.3c8.6,6.9,18.7,12.4,30.3,16.4C279.5,467.3,290.7,469.3,302.3,469.3z"/>
</svg>
