<?xml version="1.0" encoding="utf-8"?>
<!-- Generator: Adobe Illustrator 28.3.0, SVG Export Plug-In . SVG Version: 6.00 Build 0)  -->
<svg version="1.1" id="Calque_1" xmlns="http://www.w3.org/2000/svg" xmlns:xlink="http://www.w3.org/1999/xlink" x="0px" y="0px"
	 viewBox="0 0 518.9 519.3" style="enable-background:new 0 0 518.9 519.3;" xml:space="preserve">
<style type="text/css">
	.st0{fill:#FFFFFF;}
</style>
<path class="st0" d="M0,259.8c0-50,0-100.1,0-150.1C0,95.3,4.6,83,15.4,73.2c8.5-7.7,18.6-11.5,30-11.7c4.3-0.1,8.5-0.1,12.8,0
	c2.1,0,3-0.8,2.9-2.8c0-4.3,0-8.5,0-12.8C61.5,22.2,79,2.4,102.5,1c20.7-1.2,41.5-2.1,62,2.3c44.7,9.6,76.8,35.5,97.1,76.3
	c3.1,6.2,3,6.2,8.4,1.5c14.5-12.7,31.3-19.5,50.6-19.5c50.5,0,100.9,0.1,151.4-0.1c23.6-0.1,41.3,16.1,45.6,35.1
	c0.8,3.7,1.3,7.6,1.3,11.5c0.1,101.3,0.1,202.6,0,303.9c0,22-14.1,40-35,45c-4.5,1.1-9.3,1.3-13.9,1.3c-48,0.1-96,0-144,0.1
	c-5.6,0-11.5,0.3-16.9,1.6c-18.9,4.6-32.3,20.7-34,40.1c-0.2,2-0.2,4.1-0.5,6.1c-1.1,7.8-7.4,13.2-15.1,13.2
	c-7.7,0-13.9-5.5-15-13.3c-0.3-2.2-0.4-4.5-0.6-6.7c-2.1-21.7-19.4-38.8-41.1-40.7c-3-0.3-6.1-0.3-9.1-0.3c-48.2,0-96.4-0.1-144.6,0
	c-11.6,0-22.2-2.5-31.3-9.9C5.7,438.9,0,426.3,0,411.2c0-32.8,0-65.5,0-98.2C0,295.2,0,277.5,0,259.8L0,259.8z M274.8,286.4
	L274.8,286.4c0,50.7,0,101.3,0,152c0,1.3,0.5,2.6,0.7,3.9c1-0.5,2.1-1,3.1-1.6c13.8-9.1,29-13.1,45.6-13c48,0.2,96,0.1,144,0
	c2.6,0,5.3,0,7.9-0.5c6.2-1.2,10.1-5.1,11.6-11.1c0.6-2.5,0.6-5.2,0.6-7.9c0-98.7,0-197.3,0-296c0-2,0-4.1-0.2-6.1
	c-0.8-7.8-6-13-13.8-13.8c-2.2-0.2-4.5-0.2-6.7-0.2c-45.8,0-91.6,0-137.3,0c-4.5,0-9,0-13.4,0.3c-15.5,1.2-27.2,8.8-35.4,21.8
	c-5.4,8.6-6.7,18.1-6.7,28.1C274.8,190.4,274.8,238.4,274.8,286.4L274.8,286.4z M91.7,198.6c0,49.8,0,99.7,0,149.5
	c0,13.1,5.5,18.5,18.6,18.6c9.2,0,18.3-0.1,27.5,0c40.1,0.6,73.8,15.7,101.3,44.9c1.4,1.5,3.1,2.8,4.7,4.2c0.2-2.2,0.5-4.4,0.5-6.6
	c0-89.3,0.1-178.6-0.1-267.9c0-7.9-0.6-15.9-2-23.7C235,77.2,202,43,161.9,34c-18.7-4.2-37.7-2.9-56.5-2.5
	c-7.4,0.1-12.6,5.9-13.5,13.4c-0.3,2.4-0.2,4.9-0.2,7.3C91.7,100.9,91.7,149.8,91.7,198.6L91.7,198.6z M30.6,259.5
	c0,48.6,0,97.2,0,145.8c0,2,0,4.1,0,6.1c0.4,10.1,6,15.8,16,16.2c2.4,0.1,4.9,0,7.3,0c46.4,0,92.7,0,139.1,0
	c5.5,0,10.9,0.6,16.4,0.9c0.8,0,1.6,0.1,2.3,0.1c-0.5-0.8-0.8-1.8-1.5-2.4c-18.1-16.7-39.2-26.8-63.8-28.5c-13-0.9-26-0.5-39-0.6
	c-10.3-0.1-19.7-2.9-27.9-9.1C66.7,378.4,61,365.1,61,349c0.1-80.9,0-161.9,0-242.8c0-4.6-0.5-9.2-0.8-13.8c-4.7-0.1-9.3-0.4-14-0.2
	c-9.4,0.4-15,6-15.5,15.4c-0.1,2.2-0.1,4.5-0.1,6.7C30.6,162.7,30.6,211.1,30.6,259.5L30.6,259.5z"/>
<path class="st0" d="M381.5,336.2c19.1,0,38.2,0,57.3,0c2,0,4.1-0.1,6.1,0.2c7.7,1.1,13,7.6,12.9,15.3c-0.1,7.4-5.5,13.6-12.9,14.8
	c-1.6,0.2-3.2,0.2-4.9,0.2c-38.8,0-77.6,0-116.4,0c-2,0-4.1,0-6.1-0.4c-7.4-1.3-12.5-7.6-12.3-15.2c0.1-7.5,5.5-13.7,12.9-14.7
	c2.4-0.3,4.9-0.3,7.3-0.3C344.1,336.2,362.8,336.2,381.5,336.2L381.5,336.2z"/>
<path class="st0" d="M381.5,275.1c18.9,0,37.8,0,56.7,0c2.2,0,4.5,0,6.7,0.3c7.4,1.1,12.8,7.3,13,14.7c0.1,7.7-5.2,14.1-12.9,15.4
	c-1.8,0.3-3.6,0.2-5.5,0.2c-38.2,0-76.4,0-114.6,0c-1.8,0-3.7,0-5.5-0.2c-8.2-0.8-14-6.8-14.1-14.8c-0.1-8.2,5.6-14.6,14.1-15.5
	c2-0.2,4.1-0.1,6.1-0.1C344.1,275.1,362.8,275.1,381.5,275.1L381.5,275.1z"/>
<path class="st0" d="M380.9,183.7c-18.7,0-37.4,0-56.1,0c-2.2,0-4.5,0-6.7-0.3c-7.5-1.1-12.7-7.2-12.8-14.7
	c-0.1-7.8,5.2-14.1,12.9-15.2c1.8-0.3,3.6-0.3,5.5-0.3c37.8,0,75.6,0,113.4,0c2.4,0,4.9-0.1,7.3,0.2c7.6,0.8,13.3,7.2,13.5,14.9
	c0.1,7.6-5.4,14.2-13,15.3c-1.8,0.3-3.6,0.2-5.5,0.2C419.9,183.7,400.4,183.6,380.9,183.7L380.9,183.7z"/>
<path class="st0" d="M381.6,244.7c-18.9,0-37.8,0-56.7,0c-2.2,0-4.5,0-6.7-0.3c-7.8-1.1-13.1-7.5-12.9-15.2
	c0.2-7.8,5.6-13.9,13.4-14.8c1.6-0.2,3.2-0.2,4.9-0.2c38.4,0,76.8,0,115.2,0c2,0,4.1-0.1,6.1,0.2c7.4,1,12.8,7.1,13,14.6
	c0.2,7.4-4.9,13.9-12.3,15.2c-2.4,0.4-4.9,0.4-7.3,0.4C419.4,244.7,400.5,244.7,381.6,244.7L381.6,244.7z"/>
<path class="st0" d="M457.7,469.2c0,2.6,0,5.4-0.6,7.9c-1.5,6-5.4,9.9-11.6,11.1c-2.6,0.5-5.3,0.5-7.9,0.5c-46.9,0-121.1,0.1-168,0
	c-0.1,10.2-0.6,20.5-1.4,30.7c48-0.1,123.2,0,171.1-0.1c4.6,0,9.4-0.2,13.9-1.3c20.9-5,35-23,35-45c0-19.7,0-2,0-21.7
	c-10.2-0.5-20.4-1.2-30.6-2.1C457.7,468.2,457.7,450,457.7,469.2L457.7,469.2z"/>
<path class="st0" d="M61.2,469.2c0,2.6,0,5.4,0.6,7.9c1.5,6,5.4,9.9,11.6,11.1c2.6,0.5,5.3,0.5,7.9,0.5c46.9,0,121.1,0.1,168,0
	c0.1,10.2,24.6,20.5,25.5,30.7c-48-0.1-147.2,0-195.2-0.1c-4.7,0-9.4-0.2-13.9-1.3c-20.9-5-35-23-35-45c0-19.7,0-2,0-21.7
	c10.2-0.5,20.4-1.2,30.6-2.1C61.2,468.2,61.2,450,61.2,469.2L61.2,469.2z"/>
</svg>
