<?xml version="1.0" encoding="utf-8"?>
<!-- Generator: Adobe Illustrator 28.3.0, SVG Export Plug-In . SVG Version: 6.00 Build 0)  -->
<svg version="1.1" id="Calque_1" xmlns="http://www.w3.org/2000/svg" xmlns:xlink="http://www.w3.org/1999/xlink" x="0px" y="0px"
	 viewBox="0 0 418.8 519.3" style="enable-background:new 0 0 418.8 519.3;" xml:space="preserve">
<style type="text/css">
	.st0{fill:#FFFFFF;}
</style>
<path class="st0" d="M186,418.7c-49.5,0-96-19.1-131-53.8C20.2,330.2,0.6,283.9,0,234.5C-0.6,185,18.5,138,53.7,102.1
	c35-35.6,81.5-55.2,130.9-55.4h0.7c49.9,0,96.7,19.2,131.9,54c35.2,34.8,54.6,81.3,54.8,130.9c0.2,50-18.9,96.9-53.7,132.1
	s-81.5,54.7-131.4,54.9L186,418.7L186,418.7z M147.6,384.4c12.1,3.2,24.7,5,37.7,5.2c3.7-0.5,7.4-1,11.2-1.5
	c8.7-1.1,16.9-2.1,25.1-3.8c20.8-4.3,40.2-13.5,59.4-28.1c0.3-0.2,0.7-0.5,1-0.8c-0.2-0.3-0.5-0.6-0.7-1
	c-6.8-9.8-10.2-20.8-10.1-32.8c0.1-14.7,4.2-28.8,12.3-41.9c2.1-3.4,4.6-7.8,5.7-12.1c0.9-3.5,1.4-8.6-1.1-12.5
	c-2.6-4.1-7.7-5.9-11.5-6.6c-0.5-0.1-1-0.2-1.6-0.3c-1.1-0.2-2.4-0.4-3.8-0.7c-13.8-3.5-24.9-12.5-30.6-24.6
	c-5.7-12-5.5-26.2,0.5-39c8.6-18.2,24.3-29.3,46.8-32.9c8.8-1.4,17.7-1.6,26.4-1.8c1,0,2-0.1,3-0.1c-0.7-1.1-1.4-2.2-2.2-3.3
	c-1.5-2.3-3.1-4.7-4.7-7.1c-2.7-4.3-5.8-6.2-10.7-6.3c-4.2-0.1-8.3-0.5-12.3-0.8c-4.3-0.4-8.4-0.7-12.5-0.8h-0.6
	c-5.8,0-10.8,2-15.6,6.3c-6.7,6-14.8,12.9-24,18.5c-5.6,3.4-11.4,5.2-17.2,5.2c-9.4,0-18.1-4.5-25.1-12.9c-7.4-8.9-10-20-7.3-31.3
	c1.9-8.3,4.8-16.1,8.4-23.2c2.9-5.6,6.4-10.6,9.8-15.4c0-0.1,0.1-0.1,0.1-0.2c-6.2-0.7-12.2-1-17.9-1c-8.4,0-16.6,0.7-24.4,2.1
	c6.5,11.1,13.6,25.3,17.1,41.6c6.7,31.4-6,55.3-35.6,67.3c-1.1,0.4-2.2,0.9-3.2,1.3c-2.8,1.1-5.4,2.1-7.7,3.4
	c-2.6,1.5-3.3,2.7-3.4,3c0,0.2,0.7,1.7,3.5,3.5c0.9,0.6,1.4,0.6,1.6,0.6c0.8,0,2-0.4,3.5-1.2c1.6-0.8,3.2-1.7,4.7-2.5
	c4.7-2.5,9.6-5.1,14.8-7.1c4.6-1.8,9.3-2.6,13.8-2.6c11.2,0,21.4,5.2,31.4,15.8c10.8,11.6,12.3,25.4,4.6,41.2
	c-2,4.1-4.3,8.1-6.5,11.9c-1.4,2.5-2.9,5-4.2,7.5c-3.6,6.7-4.1,12.7-1.7,19.5c2,5.6,4.2,14,3.6,22.8c-2.1,28-13.2,51.3-33.1,69.4
	C159.8,378.3,154.1,381.8,147.6,384.4L147.6,384.4z M30.8,219.4c-1,11.5-0.7,23.3,1.1,35.7c7,48.2,35.1,88.4,74.4,112
	c-0.2-0.8-0.4-1.7-0.6-2.5c-1.3-6.5-0.9-12.8-0.7-19l0.1-2.6c0.2-4.5,0.7-9,1.2-13.2c0.3-2.3,0.5-4.6,0.7-7
	c0.7-7.2-1.9-12.5-7.9-16.7c-1.4-1-2.8-1.9-4.2-2.9c-3.2-2.2-6.6-4.5-9.9-7c-9.8-7.2-15.4-17.1-16.2-28.5c-0.3-3.9,0.1-7.5,0.5-10.9
	c0.2-2,0.4-3.9,0.5-5.7c0.4-12.6-2.5-16.6-14-19.6C45.8,228.6,37.5,224.7,30.8,219.4L30.8,219.4z M134.6,353.4c0,0.8,0,1.5,0,1.9
	c0.1,0.8,0.2,1.4,0.3,1.9c0.4-0.1,0.8-0.3,1.4-0.5c3.7-1.6,7.4-4.2,10.3-7.2c10.7-11.2,17.3-24.5,19.6-39.6c1.1-7,0.8-12.7-0.6-16.6
	c-6-16-4.3-31.9,5.2-48.7c0.8-1.5,1.7-3,2.6-4.4c2.3-4,4.5-7.8,6.4-11.7c1.2-2.5,1.4-4.3-1.4-7.1c-4.2-4.2-6.8-4.7-8.5-4.7
	c-1.8,0-4.1,0.6-6.8,1.9c-2.1,1-4.2,2.1-6.4,3.3c-4.8,2.5-9.7,5.2-15.2,6.9c-2.9,0.9-5.8,1.4-8.8,1.4c-12.9,0-25.3-8.5-31.6-21.7
	c-7.2-15-2.8-30.1,11.4-39.5c5.6-3.7,11.7-6.2,17.6-8.6l0.7-0.3c16-6.6,21.2-16.1,17.9-33c-2.7-13.9-9.6-25.8-18.4-39.9
	c-41.9,17.1-71.7,46.5-88.6,87.6c-0.7,1.8-0.9,4.6-0.4,6.5c2.7,10.8,8.6,17,18.3,19.5l0.7,0.2c3.2,0.8,6.4,1.6,9.7,2.8
	c16.6,6.2,26.5,17.8,28.8,33.4c1.1,7.4,1.2,15.4,0.6,23.6c-0.6,6.6,1.5,9.5,4.7,11.7l3.1,2.2c2.5,1.7,5,3.4,7.5,5.1
	c17.5,11.7,25,28.4,22.4,49.6c-0.7,5.4-1.3,10.9-1.8,16.2c-0.2,2.2-0.5,4.4-0.7,6.5C134.6,352.5,134.6,352.9,134.6,353.4
	L134.6,353.4z M313.2,179c-10.3,0-19.3,1.3-27.6,3.9c-8.4,2.6-14,7.4-17.2,14.4c-3.6,8.1-1.2,15.5,6.2,19.1c2.5,1.2,5.7,1.8,9,2.5
	l1.5,0.3c17.9,3.7,29.1,14.4,33.2,31.8c3.4,14.4,1.2,28.3-6.7,41.3c-2.9,4.8-5.5,9.2-7.2,13.7c-4,10.4-4.1,19.5-0.3,27.7
	c0,0.1,0.1,0.2,0.2,0.3c0,0,0.1-0.1,0.1-0.1c24.2-28.5,36.8-62.5,37.5-101c0.1-16.1-2.6-32.5-8.4-50.3c-0.2-0.5-0.6-1.7-0.9-2.4
	c0,0-0.1,0-0.1,0C325.4,179.4,319,179,313.2,179L313.2,179z M235.9,85c-7.1,8.6-14.9,18.9-19.4,31.2c-1.2,3.3-1.8,6.7-1.6,9.4
	c0.1,1,0.5,4.4,3,4.4c0.6,0,1.6-0.2,3-1.1c5.7-3.7,10.8-7.7,15.1-11.9c9.5-9.3,20.6-14.6,33-16c-10.1-6.3-21.1-11.7-33-15.8
	C235.9,85.1,235.9,85.1,235.9,85L235.9,85z"/>
<path class="st0" d="M364,82.8C320.9,31.7,257.9,1.5,191.2,0.1c-0.3,0-0.7,0-1.1-0.1C189.3,0,165.2-1.3,165,15.2
	c-0.2,16.6,21.3,15.3,24.1,15.3c0.5,0,2.8,0,2.8,0c15.8,0.1,32.3,2.6,49,7.3c42.9,12.2,81.3,38.6,108,74.6
	c27.4,37,41,80.7,39.4,126.4c-2.3,62.7-28.7,114.5-78.4,153.9c-34,26.9-74.3,41.3-119.9,42.6c-1.4,0-2.8,0.1-4,0.3
	c-1.2-0.1-2.6-0.3-4-0.3c-28-0.8-54.1-6.6-77.9-17.2h0c0,0,0,0-0.1,0c-2.3-1-4.7-2.1-6.9-3.3c-6.4-2.3-15.6-3.5-20.7,5.3
	c-7.3,12.6,5.6,20.7,8.8,22.5c20.3,9.7,42.2,16.7,65.3,20.4c6.7,1.1,13.5,1.6,20.1,2c0,3.5,0,7,0,10.4c0,3.9,0,7.7,0,11.6
	c0,0.5,0,0.9,0,1.4h30.6c0.2-7.1,0.2-14.8,0-23.3c6.6-0.5,13.4-1,20.1-2c101.5-16.1,179.8-95.1,194.9-196.4
	C426.1,200.9,407,133.9,364,82.8L364,82.8z"/>
<path class="st0" d="M75.2,486.9h223.4c9,0,16.2,7.3,16.2,16.2l0,0c0,9-7.3,16.2-16.2,16.2H75.2c-9,0-16.2-7.3-16.2-16.2l0,0
	C59,494.1,66.3,486.9,75.2,486.9z"/>
</svg>
